<mxfile host="app.diagrams.net" modified="2023-08-22T09:23:15.546Z" agent="Mozilla/5.0 (Windows NT 10.0; Win64; x64) AppleWebKit/537.36 (KHTML, like Gecko) Chrome/115.0.0.0 Safari/537.36 Edg/115.0.1901.203" etag="Bzj-O5jpYXjb01s5SRx3" version="21.6.8" type="github">
  <diagram name="第 1 页" id="0Bon8CFjZLaogkEp7ciW">
    <mxGraphModel dx="1373" dy="746" grid="1" gridSize="10" guides="1" tooltips="1" connect="1" arrows="1" fold="1" page="1" pageScale="1" pageWidth="827" pageHeight="1169" math="0" shadow="0">
      <root>
        <mxCell id="0" />
        <mxCell id="1" parent="0" />
        <mxCell id="NlARpHzSFc4Lti2y5NIV-5" style="edgeStyle=orthogonalEdgeStyle;rounded=0;orthogonalLoop=1;jettySize=auto;html=1;exitX=1;exitY=0.5;exitDx=0;exitDy=0;entryX=0;entryY=0.5;entryDx=0;entryDy=0;" edge="1" parent="1" source="NlARpHzSFc4Lti2y5NIV-1" target="NlARpHzSFc4Lti2y5NIV-4">
          <mxGeometry relative="1" as="geometry" />
        </mxCell>
        <mxCell id="NlARpHzSFc4Lti2y5NIV-1" value="taskctl - server" style="rounded=0;whiteSpace=wrap;html=1;" vertex="1" parent="1">
          <mxGeometry x="59" y="120" width="150" height="60" as="geometry" />
        </mxCell>
        <mxCell id="NlARpHzSFc4Lti2y5NIV-2" value="" style="ellipse;whiteSpace=wrap;html=1;aspect=fixed;" vertex="1" parent="1">
          <mxGeometry x="59" y="90" width="20" height="20" as="geometry" />
        </mxCell>
        <mxCell id="NlARpHzSFc4Lti2y5NIV-3" value="任务定时调度" style="text;html=1;align=left;verticalAlign=middle;resizable=0;points=[];autosize=1;strokeColor=none;fillColor=none;" vertex="1" parent="1">
          <mxGeometry x="89" y="85" width="100" height="30" as="geometry" />
        </mxCell>
        <mxCell id="NlARpHzSFc4Lti2y5NIV-14" style="edgeStyle=orthogonalEdgeStyle;rounded=0;orthogonalLoop=1;jettySize=auto;html=1;exitX=1;exitY=0.5;exitDx=0;exitDy=0;entryX=0;entryY=0.5;entryDx=0;entryDy=0;" edge="1" parent="1" source="NlARpHzSFc4Lti2y5NIV-4" target="NlARpHzSFc4Lti2y5NIV-13">
          <mxGeometry relative="1" as="geometry" />
        </mxCell>
        <mxCell id="NlARpHzSFc4Lti2y5NIV-4" value="kettle - job" style="rounded=0;whiteSpace=wrap;html=1;" vertex="1" parent="1">
          <mxGeometry x="329" y="120" width="150" height="60" as="geometry" />
        </mxCell>
        <mxCell id="NlARpHzSFc4Lti2y5NIV-7" value="1. 调用kettle作业&lt;br style=&quot;font-size: 12px;&quot;&gt;&lt;br style=&quot;font-size: 12px;&quot;&gt;2. 执行ETL任务" style="text;html=1;strokeColor=none;fillColor=none;align=left;verticalAlign=middle;whiteSpace=wrap;rounded=0;fontSize=12;" vertex="1" parent="1">
          <mxGeometry x="219" y="100" width="110" height="50" as="geometry" />
        </mxCell>
        <mxCell id="NlARpHzSFc4Lti2y5NIV-9" value="" style="ellipse;whiteSpace=wrap;html=1;aspect=fixed;" vertex="1" parent="1">
          <mxGeometry x="329" y="90" width="20" height="20" as="geometry" />
        </mxCell>
        <mxCell id="NlARpHzSFc4Lti2y5NIV-12" value="ETL流程作业" style="text;html=1;align=left;verticalAlign=middle;resizable=0;points=[];autosize=1;strokeColor=none;fillColor=none;" vertex="1" parent="1">
          <mxGeometry x="359" y="85" width="90" height="30" as="geometry" />
        </mxCell>
        <mxCell id="NlARpHzSFc4Lti2y5NIV-13" value="MongoDB&lt;br&gt;MySQL" style="rounded=0;whiteSpace=wrap;html=1;" vertex="1" parent="1">
          <mxGeometry x="619" y="120" width="150" height="60" as="geometry" />
        </mxCell>
        <mxCell id="NlARpHzSFc4Lti2y5NIV-15" value="3. 查询可执行任务&lt;br style=&quot;font-size: 12px;&quot;&gt;&lt;br style=&quot;font-size: 12px;&quot;&gt;4. ETL处理结果汇总&lt;br&gt;&lt;br&gt;5. 更新执行状态" style="text;html=1;strokeColor=none;fillColor=none;align=left;verticalAlign=middle;whiteSpace=wrap;rounded=0;fontSize=12;" vertex="1" parent="1">
          <mxGeometry x="489" y="70" width="130" height="80" as="geometry" />
        </mxCell>
        <mxCell id="NlARpHzSFc4Lti2y5NIV-16" value="" style="ellipse;whiteSpace=wrap;html=1;aspect=fixed;" vertex="1" parent="1">
          <mxGeometry x="619" y="90" width="20" height="20" as="geometry" />
        </mxCell>
        <mxCell id="NlARpHzSFc4Lti2y5NIV-17" value="数据存储" style="text;html=1;align=left;verticalAlign=middle;resizable=0;points=[];autosize=1;strokeColor=none;fillColor=none;" vertex="1" parent="1">
          <mxGeometry x="649" y="85" width="70" height="30" as="geometry" />
        </mxCell>
        <mxCell id="NlARpHzSFc4Lti2y5NIV-18" value="" style="shape=image;verticalLabelPosition=bottom;labelBackgroundColor=default;verticalAlign=top;aspect=fixed;imageAspect=0;image=data:image/png,iVBORw0KGgoAAAANSUhEUgAAA2AAAAIyCAMAAACafVneAAAAAXNSR0IArs4c6QAAAARnQU1BAACxjwv8YQUAAALrUExURf////b29vf39/X19f7+/vDw8Orq6vz8/Pn5+fT09P39/fr6+vv7+/j4+Onp6ezs7O7u7vPz8+jo6PLy8u3t7e/v7+fn5/Hx8evr683Nzbm5uba2trW1tbCwsLe3t7Ozs6mpqbGxsczMzNTU1GRkZDY2NjIyMjU1NWFhYdDQ0MTExD09PR8fHycnJykpKSoqKiAgIDk5Ob+/v8HBwTg4OCUlJSEhISIiIiYmJru7u8PDwzw8PCMjIxQUFBUVFRMTEygoKL29vcbGxtfX1+Xl5c/Pz8jIyNvb2+Hh4SQkJBYWFhcXF9HR0Xt7e05OToKCgtjY2GlpaVJSUpGRkYSEhFNTU21tbd/f36qqqqysrNnZ2dzc3N3d3eTk5F9fX25ubrq6ut7e3ubm5ri4uNbW1uPj49ra2tXV1eLi4snJyWNjY6KiokVFRXp6emdnZ+Dg4KSkpE9PT0BAQH9/f6Ojo7y8vI+Pj5OTk319fTo6Oq+vr5ubm2BgYFBQUFdXV1lZWVhYWHh4eMXFxaWlpVFRUVxcXJKSkkpKSlRUVIqKitPT05aWlltbW4ODg4WFhc7OzqCgoHR0dENDQ2ZmZkxMTLS0tDMzM3NzczExMXl5eS8vL3JychERERgYGBISEhsbG0FBQaampoeHh9LS0pSUlC0tLTs7O2xsbJ2dnYCAgMfHx2hoaMrKyoiIiGtra2pqamVlZQ4ODnBwcHd3d35+fpmZmW9vb4GBgXFxcY2NjXx8fA0NDT4+Pq2tra6uri4uLqurq8DAwDc3N0ZGRoaGhr6+vkJCQmJiYoyMjDAwMJqamisrKx0dHR4eHhoaGg8PD1ZWVhwcHDQ0NJycnElJSRkZGSwsLERERKioqE1NTZ+fn5CQkHV1dV5eXj8/P5iYmEhISEdHR46OjouLi7Kysp6enomJiaGhocvLy3Z2dqenp8LCwktLS5WVlVpaWlVVVZeXl11dXRAQEAwMDAoKCggICAkJCQcHBwAAAHvQ46EAAAD5dFJOU///////////////////////////////////////////////////////////////////////////////////////////////////////////////////////////////////////////////////////////////////////////////////////////////////////////////////////////////////////////////////////////////////////////////////////////////////////////////////////////////////////////APmzeUYAAAAJcEhZcwAAFxEAABcRAcom8z8AAMb6SURBVHhe7V3LlaQ607wmYANO9METFnjFObUaF1hxsKXMqOW//SNSCSQQ1Z3dqtsz0/cLHimCVOqBhB5Q1D9pNI07XoWX23uxwf9cgv93RWohI6jILCdjmOUGFYjLiDSn7FVwdZFxGVGVYOW3glOBNNKzy4g0l7Wn9Cq4dAS/owimUZUSwWl7aUWXAVWpE/ie8pb1LJBOcDKMdFwkV2MwiboIugzQ9tKKLgOqDNYELLk/vQWrSpziBpcRaXuCrIm01KuKoMuI9BVWekkunTjF/bYWTHp+cfanc0FySYNZezKC31IhXEa8Wi8b6XyTXaOX9esy4q8sgulQ6mLjMkLG0GWE4hT+qAgqr1l7EtKgOyKyYSjy1S2YjKBC0mA6A5N+0wZlIAI6wSeSh1Q0GTeQXOJ6PsaK5coLyu2Zc92UFlZBuufDagX4sl4Ibc9dcRP2sCjPiosHZTV7J+65vTMr9S4U9S6U9hwPykp7gjwRWAUl9U49MONML+iU9UJgLTJudRG05bgWv3F74leQKiFMMNYDEMgRJdjrhvZ5O9hWIh4b5XJjeLDtdgqxWU+sWxFxdepI2opdPHREZiVPnFxd77DtEdzWfRcoyR2Oy3qh/fhKQkaK7IXBOhh/WIkTVdaD0/bb8bZeycJcuMNxoU5MWY9YuWviCiu5w1auCLbTenDafjsuq8Hkgf16ETQcE2Lbut9wrXEE+TMUpz27/Ag1BrMRlObSYSQNZiPN+9sFFWEk44dL7q4ditMJVoraszsCrgkGofy6PEDpXbl04jSXVnQZoNTkFU4bFD30tD2FZLhpTqVO6SlShiFJlxFpTpBVftOeXUZIe4p0GZHmXm7vtQa/JcFp39JzgmvavuuBru+whoW79qxcEfBXI2iQ9hTpMkJxgtT2sgaVX3XLq7CXnuSQkXEZ8PoEV/itimA24HwEpecrmYlMO97ebhpvt0frWg4ZGZcRmYCJP4lLN7HSoMsIGYjym+auZNavjGC6T5zlkneUfKSVosuIrN+6LmJS78y1t7c3VCUsZ/BE51orspFxGVHTRZRh1GS/NuiOiGwYFfbSXFULluSkX5cHVNjLcvIKpz27jKiLYHIMdh5idqpurbgdW7B0BBWpPGftSb9Je+m41ERQkTUtoo50zmDWXj6CLiMkJ0JOR0Zxr+5jS89Z3zpkpejS0d7f3n454FhXcug6nlow+G1ajMzcxtB2NhV9ABWQM5egjWiG3bcAar8sRjUJ1jNyLiNqAq6xp+N3JbMJlmHIQKRBlxFJLmsvO41YVRQUl+0TPzF4JTP20IJ5jQrVyyvbpYsIz+18n/zO0vTjfTnfZZp2eoxdM/S9t35N09pcyTCgMg48WXicALXCY992qLLmOmCj4FjdTPBFVfilYtuerAq9awbimFQR+8ndtYNpuYShbsADouLuFcreJVBAljflOcHZ4dkeDlUQknSOXsxB7NyOw8GKE2l5JzLrb2jBXEacFNmCeaUqwtayUy1YO76tUx9Nf3+bL/UBCvd+6O/3ucxBohqiwiG3pnEamvl+700NJ5bx/lgxdyygTf949GeDxBrpvRyzLUS9NHaH9jvdH9PH0zWXHGRtAFgnuG7nVSDD8rjPxwKhrgjuPtv9aYOy1+CGxLD3QHGX4LEfrlB+P04c7ge0hjzfeeOOYTreCYOXA/fPcoA7gJk4RFJ5PnG46vfxPGENyDvKx4lzVOhJxa9OCq8t2GnFji3YtVi2j7fRg2oWVLBLEKyBHfLs121mvULFut1Y9LrHbW6a+fZYKy0UEYSF8+vXve/HqW2mt5uqYBuFWjoudtTN46XWrAneLdDVDOOvt/GgKjPwTDbtPEbsLa87Itr57f+OYVz0eIjc+3WqhzoyKHUMvWQhgRqM45L2HfmupMuCBrlXMM+LB7End566QxSlPSPXSBoFbljoP0ZSJu7EDfPt1/18KQlRpHVkXEaIgHWFzVqUnhOct2Cxclntwk60YGg3Hqw/gz07m++3x7LAEbs91oL9808/3u6lrrSP2w1tV3e/jahFt/vMB264YeHq3G+3xzzeb/dx6ubbHfVy9XTCyg3j283qNy7K222+XBXc+Lv16R0Gg1ZQ0C+9qopALjnY3ZkXNp1Kx+TnhVckcrqdKnG8nhislmLcItrnCqYNNguDtVuTAfkOnIJ45tdlxIFDPjNNtuASlgxDf8TJt8ex5//UHm+xeyRZOHi3PETyw7jgcLqzTPnRDlkhsuVcqiX9PvF8ZTOBWAvG5bRydx6DYWQ1zfe3+9QvI8sdFj4tsxxG+ASKNVqwHq5lRKFmYLwK6CSiIfMHbvRhtQQc6tMwo4NA96NFqZIVbIt0O5bmkDb3wrcD99D7vZQO3KXLczwEgPAOJVPm9MVaN94BxpcS1d955Zk1Z23ZHXsgTTd6BPjU8RxtFRnk44KQ90o7oBDi+JJk5fdjjp37kiizaj0B44wEcyjvOoK2t1htkWzLYYzkk8S5qwBp+3V+4mq4XJE13CNUGFLx0sE2CDKRhQXPs2YDWrBbabDOq2jBkBXIfTRCEyoY713ITtZP5HBrbRowPd7uc9/1yzz1vV2nYX5MA+oddXkBiFIY0WB1rFo4YgXrnlWwLdKDVzD0N3HTczJimH/dSlODJtM7HqxgpxZMhnEmMaLoWtQN3NBt/LPSLg9AR/jagrmj3GLspKpg8gpbBUNZv3t/CxUYR8Kv9CxwIFmZcJvEKGxBRr6hgwEObeR9wrgWN6a3t8NAUYVh3CmSyKs77B0iqSJz4v6dFqzCrzZ4znogY+9ZC4b17Q3F/wB0zFinbiN6eT2qEMoNe4g9hrkY5JfpCt4B78V9LwN69NXQsqBmLKh9qJ1Lv7Dmob+5t2B0H1qwQ2ZsB96CsYP42Lv6qAmuAWO//HKjEJXOirVgawWDqkWpHO1o2r4XOcgk4+qHM27AYROhNHZowTwuTePTMCyH5aRVsFPg6NZew0aG3m4jUltKOjvYD3S1t7JrtinLIQGq5ELZXSZEhn1KgxWsFGm086i3dHPY/LAJqOVRqtyKYu8UyUKiv/DYIsneAyJ5qGAhDsy54otbiN5nWrBocEOaU2TWt/ScCGUdg50ql62XafqhY6XCva/YwCBlLS3swpROI5s1q4WH3kLTs8dY2imn2mXCtRknr3Sc/tgrGELqQwlZXazhMwofKvE6w4Ge/zKjteRAAk4UjnHp2qHFCI8x7QYbg5UGpOmWaZ4wrN8tr+gf52FaASrYfvVxx58YVrndNk2HLnMJem3BWFFLxBEXxmtBuUbabg/zpcdgbZlnDcARsmJE1ng9mO73ceSkrZ3GEBgBL0up6wwT1a2fpsmCxjr0iChO84xZPvmwylRsMUp2I+zRglnmoynzXkBByS1G0g4LjGMFm9FlKZHk/XIuTTRyBjlvKogCzkIsM651SQ0v2YS4QAvRq27BFKfKfihQOyQnA7mSmYD352CX9dqCwa/PIiJbeMdCZpaAOZ80j1gf1qt/wMUJJgyHcJ4qjZU7XE0boBG9dTcL0KscYwvGErB2PIDNUVowloBtfg0mDSyjNowway1aLXPiyjVrC4YIG3kawxMoKpeCDyCRbCy9gqEEFXipd3OM6NqC9Q9WNJxlWLzF3Ht2jgma0V3E9nHp7rIFw20HMbdcgL9xKa03zg0o0zToCUG/+T4uyAaMq1hTEBsOhnBXQaaW7p8P4ejDYo7WHRXMcpCtGe1alqPSUXe/CxpMr92fYAKlaJVIjm/lUnGkiWhYBcP9pjSHiDlzFueQUd6NbnHvY/Rwg2WE/50WTJCyPmQtSs8JrrRg57pVVvmgeWRBGnBznmf0We4jJBuT0lkayjgXzQuOueJOPD4eaFMWKs6cN4QDzUg/WJ5zVG37aX6gYK6ziCwBsZuyps7GYGwQUJ0KxS7cnVFB+WVZYeh8QjBzCImbB+yxglnrwgrBQocCcbl2PSqlOwO8gnk2wM3hJ1JoZQ2VCcd8XMBCYhWM4s67P0spAkeAfccJId7GMCJE/HMVzCI790tRR77cOM/qM6jWW7jbjnnELvDduuZMLrR55wOFBRT9rz62Ksgu4trj402L4XMMhp5Eb/XL89tQ3O0YI1k4RnLs2PsvRi2SVsFYa60V5M2QwwDkCy48p7P22LDGUxnH6RbsXH4JpSe9Ju1pzrMrIhNIacEudYsUisXpusMvK1g38EbNxTqC8aX7UmvKndaAq/8LBd48AL5jxmI0zZn7th/vD/Qn7BUsG5TRW4sWsHRuiM1hhQEl3MoRWfhAmwhbOIHeGKdYcBtFx6PlvdS7iN6CsQ/EbhO8WEE9YHnscd5xasE6mBuGBX3ahUG/MSsYccaXFQx39FK/rIA9lg5jVSiw7fEuohiDwfPjfANHi88xWMuhF64BO18d0+4F2aaRcM9CGDwLo8jIDvlppRptETOh66yhM2L1gatAHyC2LqJ5B2lRxiCKN6FyDVaUA7RgIZKFswrWomJZNGaYYT4wkqv0Xg4rLy4PX5QrAVn0UOGZW2zBou0N6oJcMg/IcrKLSJOX5QkXD8sSnE+WFuX9XLewmrAWLCo3GOrafQ79abRLD27IJXQGPOrMV1xU75IRfF8DV7mfH7x0dv04A8LOI4uNFdRS3hub0/IKhm46r8UWrjtg3yaq2C5ZglHfS/8EV9laqbVThbqO+6LFghUM59jBs0rEXgv8u0mkiXOE0x113eYKtxO22CSHVXUGR3MI88ZZNhvaIYMM1oK1aKyYcpYZ5EqJB3eMnJWWUu6CfYbd9Q9UfIYdTpSyy/SiCLLzBTfKKhLE4Eu4PhuBewAShGO2ldBgQpmxLP/WRLAKmQ+revDBMm5dRC70zgrGtqbcAnFnsMSWpUSy7R8+mVpyrpyJkUS8xpb3I7sLIGi+lEPjOIcM2Hr8JW8YG+iw+7i2YJdFlvPsEpzrcrWHSJArZ9Y9tnLwEYSWUYEvLVisWWFFViPfd23kNOoJW/axQ2XosUO+Iwdx8fw8Ly2vEnoiKGeGoQM5sRihg7Xg4D7hxs7mClfZegzoOOBi242NRdZCxLYF7caxWd0YZ9RxdCeNRBmzVqnFpeZtlAMe9v94ymuGt2DoiOFyssXpS6WkAexxwVHtkSyb+uTQzk5YiDjL4mxXvwCN2ML+KGoJCwqaZk7NWc1/G9EWo4wxSPYerZzZghDA0x5qSqlgBgjULbvzMAbIhe0Ebv3I15a9KVhE4ibWa6u9He5CbJbs7mIJwwm7ubA041oUmoUHqoiGVSvrFK+qbFcw3mIEipW1BcOdj7dM1NctkgDqlt8eGcniy7aSMGYEI8loWT7QL2OJTEZGcNDNGDymcgexPGB0rUrbnQpZzNvpATR/5i7HRJLbqOLAng5mCrYDeAHdGSC6iLDgrg1Xg9aCnWrWul4fNOP68B7H7CyzgrxrWrfezrOUc+Q6stiv4eDK2XAKjcQdncs7zgw2edThxg0l63LBGLIblnn93GPASpZChlKHvZUYlgpWDCukaEhZmXiL5qnHL1a5wqFUoYJZEeFM8trKEbzplq4ubjXmo4AarBzl6huDThjGOgjKJjT4MA4WbbqFccI5u2vDF0v2hPJRYPnCEm/V1VpRB1+pKEEzDnukkF5rHJgpaGr4los1BhYsQiqaaEN5i7ITVqHKsVUwywO2LXAxNvDBmBVVy5t1koP5UjjeqzBwxg0INW6Li92q2C+xDCo1lTH0M/BqkURYiCQrmCWQ91rUNFx7lhO7GaFzT8+MXikxcHkLhiu1h7eilP8TBJXnfofnfQx2rFw8vp3fRUSOoCTgVmQ3S+YWS6ddXIDZjTZqRAfA7pBrSByhw239nH8W1DJcBpbKoS8qaH3e7rw192gUZUI2qpQYFtNSq9mCWenk5WflGNYuI+tefA42WAUzVYi9+uN8u/To83KUhFbZrvyG0jT5CKlhD/AxT7iFWCFifWM7z7TwVakHeOv7+HBvC8IrC3CuYJxPXxbceSY+HAy5bc/BUDQRdwwkR3qymwv8srtVMs6nR6ljRv15BJtqZrgFZx009rx5vFZS3pfWMRivmt2TuvuvosUpQNc3cIq9t0hCrr5KBJgw66OiW/JgJBGXkkDW1wcat/JyKX9jccMdm9OeVsH26LEFY1+DxAmvrmDbHe+ApO+vVrDrLOLmQmU6tmAoDjPKFG+j1uhj2Io+wlqT0BLxSiHXMCDnDX3xcomriQy17gRvaSh5GLszi/kcpCtjb05HoMupf62yR5pNKK4fp0xKW8GSjCHhhIUFdG3BALtLW/zXcocLO0IN61Kex0T0DysXF/AO4lefpROViQ/NvZaULrO1IiiUIzrB1p2kNSs6jlDB1hv8AcNlkmPzwyZgHJlnFhP6RUm2ERYjZKXZ4kUDaMG8gllNLCUYLvjw1jG0YOhNkLEem11CZmWpPnHEtOH4HKycXSNJMd8ZBhPI8oHI8VYH494naLppLFcNkfL3OtmCsWojP/MtWJKrqyPS85XM+L3OIu5OMYvIDoVlIJ/zcG59vVlav94uL99FtIz2H6zYHLNNHd/Qh4M3zrPzkrLmseU5YPEadkjP5rYSY5XVwmJZ2JsKCBtQlAjBenm6srVgpUNiCLYdiVlE9LSstBxqibVw3jVqrQ5TmW2dOSwojuLLEQvXZ2YRzRL6pAzXa4t1+ErwDIW3rpI+XIJwJ6FB1k4qmF7xUa4Xc55dRMDqF33bDcnulUyyV2FDie+TB82WMJr1HsSWNxyT8fHJ4T7Di7VHj8c4jav5s5+Doe3e6hTq2ua8tmDwi+yx3CnZgxph906UbM4R8z6EcsD+BfTebNhuN8SJs4+myrspSwycvMwIBCv7biZ/rSUXNzzvjBjWSNvNGjzLc3HsJZk1cx1vAbRudW/l9oef/5Q3mA54+hyMvko2oGQzZbxH8CbDMThgjYHNeFj7XIqyjTn88SArC6JiIVsFC+ky4KZ1fqJfQmFCYGlNaunelRixJvAUzYYWbG1NS/vJykOv9GFZwRvTemvjM68OLTDMl5pTWrCGvTleSVIOS6d+0FwiyYcl5X4Qbj4sCOzf0F2yireIic9irF6V6MHxuTc5XB6Q1LtedSDNlVQdkKl065sce7Xaq9hlDAa/bMEKy37aVmRZcnChqGAtGAcsZKDKy4ue41xKMDqPuBZ+q2SfHuBln8zlrxnxduo6hs3BS2TXz+opygzLLl+34itQNM/KdB9tmplV+sFZPrvD46QNoSbozvNu2oH7benZHHEYg1llntBqo1eNSDQ9H8suSCYLNdRggMKm5xn4HcM1DDaZGkZyxh0jlL8d6DHffRplxd6CYdBKk3Ac0s6hIG9pJLzfzJwud5I1cM78WHvORs8Gj17/LUKcG4JteLHCbb7GMsLcewVEcXbHp+FGbhXM7NkMxp5Aq+clDf90E64vhnFWvXHDfUNsWLfRCbIKln4OtheFHfm2RZFa02VAPhSXDn8Xsay+rQeqBUPX2rK0teeEuBQoN8xYljMrtnBZl541jOXaHkpjPNb7kMyG9ej/h3iwTm4ZbAnBFZNvcrBdtOvHimXFgCM/JuCXtTM2IYwE2J0e1/oN4/ammcsPLllryw3kUH4Kusmnx06AFR/KWScY4dwwlvjFFmx++8WW12Y+UbCsm4NKzCBLWBYt5gWL3a//w+0K8b/+4BJFcX2xcoNNclimMMkWAeR86Z3zt3blIt3tt472IzmqMqHWNSh58vZATK3qNe6Dl4s+yu/BeMxZUA8bWV6svp1+AF4yf1iOpO04eiJbIgkOcWHeGFCtfQDBCoibMSzzmtolQzAWPRCoiewEFE8BugUT3LlMEzV+n3hWpMuAs9qpBbPND5AfpWRtYJ/dWrCh582wvO5yG/mLvW7torO2lFatG3FJrIkBHhNfSHW0HX/vz8dhfJbW4T6I8TCnOGxjDFE7Q69hcwyzv6FPl93+cLlQo7H4C4a4enxWADdqOKKH2zMuIB/LOYOllLITvMd3BAc45SZNDLjpInzGlwMZTvBgtWl6TuFYUbZnDhY6Iwi/VqD50zKaobUS/wAZLvKtNPlsJex+gD6Ap522aRxJ5glLH08MHPbQj2UCOui8x5USvvvAkVV//vLr/rBrZ+BTk4LHeQqoHB04p9YPJSAvOMXPLNoTaI2/F4Vi22cu+eGEEj2rcWs7eEGySKc52UXM+s7XTpcOPgfzurVVLD8SLdjCmaCxZUHF2Zmvu6z3pfJpG0jkmjVlHH/QC8o7OjMYqvNxFe5aI9YH7pG4OPaE196i48W3h1S4vPTMtwdCTDcnaL98fL3AcgyqHd3kcdy0OCw6PAGan7MoBF3Qxbgo2F4hKOYqbgfbheEXs/gqQ6FozI55hmqmwhiaPnQZL3OXOKLa7PHfsVqPoKqlCE7/6AXkFhNGBGnzIwRdnEwofMJhSbdORGmsGXDwgUMQ9h2UQgCFC4GsOB0aPAPpx1wWSbrWfKCT3cVScRgf3lTdFJOCA/ZtWXTo55IrDOMasqXuDKFHzQuyepqTMXRHxIlDC2bdBeyLLKAbzKmC4Rb5iz9obEd2T3g7Kk3Zes8i+BSm3LYKegyO245vP1itLfi/t6md3M2azDruELNs+Rx0eYAkBc7lisj6zeopqMRJe4p8n2MPLl6LryEbmXNC2Exe++JBj/firegIRVGkP0jwDskpMus7WwbPnI3Btjq2r2U7d6VQUewbJ/3M7p+hxUA+5kT5bJsfAIP9eqrpJvs1i4OvP6BTCZSftZgoy+lN0wJFCS6bWdJz1qBSy0YwH+krqf3KQAa2m3xvdG9CbH+E9OvyAOnZZUBsceBGDxE9P2nQwWmbtYJ9YG9HklN+1S1U25MGr2TGL3r2pTuucKg5gHWEaCAOWHA93WWwnoy7iTVAdsuKE1E1EscQxvFUWS4RJASl9aSiywjp90pKe9KzywjVp9ABuyNA2pOky4imncap76xvsTZgSi/bZMsIvs813bLYjx7e1UML9l4Fy75Nr7h8DmpNlwE6FKXockXpeXNsUMS6cfxwvgRWA074arifgjCoKoSOjMsAlY4nOegyQKll7WX9antZg2wZcHtEH2T7roL0qzxnw1B6e4XgXI895HrXLyvYeg8XkZEJlrFJcnX2VHV3eYAkk8hGRpHyEruMqNFLR1CFkQ7YZYT0m/SctZcfkvBrBeXlsa2vLu0JUtpzGSG5QLYLwEG6DMPJhu9fru4iDkgn2GWEysH3q3tAzeVMc7LCJj1LtWzA2TBkLriMUJw26I6ANOcyIp/gnEGdYGVQIek3H2mXAXW3KJcB6QSnw5WkywNkIFcyG5l0bNJ+XUZkI/MdfpViunjoUFwGZOd1tbm04gUvT7DUy3IuI7Jh6Hu8QFUgWd/ScwUnsz8bsOKyHZKqCErOZUTWrwzY5QFJe1m/0l5Vl075TXpWajqC7ojIBizVkn61Z3cEyC6i5JTBqg6ry4hkLlTZU4rpcJP2slz+hu4yQnJJxWy40q/LAxSpuJpbngxDki4j0pwgX20P5BXwzd1hNfq8ruKI7fS2Oh2XlTHnuhHxOGwfrsSJwnoUtpbQz1sADvcYHlZsJ6asT44j7DCT4EIXh63OndwNyq+Teo3b6dC2E4E9KoQdbattRVzWffH16LINu6BQVt+dQO68lV0BnBvl22bbdqd1l2XhevQemIj9zAnribBRHMG3egIQ8lVnA9/YOazYxUM7LrsrotKqcuKwXjbiCXdaNXk6xnoU+8FlC8AhU+tn4nplsArWqQizt53lflVY3b4Vujhsde7k3g5O66q5b8F5oAV5Wm27nokUD51dqXC0H2+r704gd97KrgBOWNuCK8fmCu5t3Z1lcbKIsJX1AsWtXrZtFzvOBI6tWbOqdliAeMhFUO5R6bqrrHJRBoNzXzS7K7tQ9q6Bc7cfvbtEe2XFEg/LSrKwhyU412XT209uDrko5+bA4t6P69XmB6FsCxGP1yU4y1LWcIRlPYqL2ytHhUovhyDWJTjX5cCtjsMRd+Yqh2FZIxgXRQmvVIxHZTFyO7LlCcQJeLyihsuO6WRkXEaoCGbtyTCSemmuag7BZcSrE1z3WMhlRDaCNfaqDKoEKyi/itQRVIouI75lkkPG2uUBSi9pL8vxdnTBi8NIK8q4ZAPJclVX+ErKDKyJ4KuLoL7CWc8uI6RfHbI7AiTnMiIdwbRBlxGKkw1ENowKv9kIViVYG3RHQF2Cs55dRqQDcRlRZS8ZxrdEMD1Nr1B3+7iS6dtHFefyAEVKexWBCL26BLuMUFdE6WUT/D2d9iQnw0gXQeXZZUD+jiI9uyNAJkSH7I6AtME0pwy6jKixpxTT4WbtafKK7xiDybik9a6kzKwKezIh2Uhn7UlOkTVtRjbSaYvf0wF2eUDaoDsiKrj8/c1lRJar8Szj92J7+fhVGFRqOoJJz0lO28t6dhmR9VvlWWeCIF9cYesaCOU3aS8biLqc2UzVXDIHpV+ll01xlvuWadMklzfoMkDbE6Qcg2WT9z0t2Ddwr4+gywihJ+3pgN0RkOWykZF64grrRzlJe3WRdhlQVwSvZPqKyMi4jMjbUwaTXDaC2qDLiBp7SjEdboU9abDmhp4NOGtP+k0azGdMzt6TyLgjIGtPRsblAeqOohTTnAwl6fuPasGUwWz51RG8kvny4TIiGUY6cYpTV6TGXl2nXZDZyCg1qScjmDQo9NItWFZPdhHTnCDTekrxxRU2H0GXEWl7FQa/pcLqgN0RoO1d2ZoEf88YzGVEOtJVdyhBSs/Z5H1LC5b37I6AGnvpCEpKenZHQDaCWb9Ze5q7knl7ScVXR/rPKoIuI6pyMM25PECRydtHOtLyfvliTueWywhp70qmw9AG3REgOZcRkqvy7DIgb096dkdAFadj6I6ApJpMiOwi6iS7DMjfPq6kSl3V7UNxydz6hL2kQakmDbojIm3wCjkGc3mATIjgpL1sZJJhZO1Jve9owdKRrvCrOWXQ5QEVBvMRFGTW86vDSIcrPbuMSHNJxby9Gs8uI37bGMxlhOKqpgEUKa9IVlHfPpSiywgZRlrRHQHKa7aLqCN4JavKWzohSa7GXjrS6fKWNPjqCOaLYI5Lt2CScxkhu4iKS+eWywilp2PjMiLrtybglyckG0Y6YJcR0m8yB3Vk3BGguHwEXUakWzCll+VcRihOR9BlRNZgOgfJquXopNpOrIvyG5xhCU4stqpwg3NfgtMXqQgO4rRiZ/vjcubO9riawcsSnPsSnL6oQEsFC8dYit/reiG4YjssOjIXtfyCCpHzrrQ0d2GDMy6KD04uOBYpLoEcl+CMS3DagbSnlidhbO5tueitkT5sFERx2tGFKmthgsv3K+nbLuJqcKdvwRkoW4/SD46rfxABzuve1lVeuaPwA8LJddtFXM/HWA/qxcnyu9HbalvZxf2FMMBl6ypZIcy5bhSrI6b3tJX1vFG4tHWlNuKwll3cbB/WED8/tsPdGWO4Og7ckQL4TZnTGp3rRpgsB9hHhx8W6sCV9XyMFdvq3rmyDxtWu0X5AVlIq4pl51twrns7NOXIUtgZdxcUbjuBjWsR+zFc7EC40zeL1X7Ijevu3OTBXtl7/E50kUVEDtvK2WFkN+4SG2yrK+6xXSkn922NoB3anqsdbIztyxlzHvfrCWdCgn0rqx+HI4qwcS3iuIEsNI92px3F/R7pfXMXhe/PKfazvq2U7Z9xO1XkGuu49y04t+Oy86PN7Xtua5O9ctwfQuaejl1vo08u2yy92CjKLsgIyaUVXUYIbsv9iKw9bdAdAa+2lzYoORWIy4jvsKfIlyeYt9AzqsJQ9pKcMlhVBCWnyKzvV8cmmwvas8sIdTmzkZFhvHgWRmbgyw3+LnvaoDsC8plwJeuuiLCn9GoSIg1KLmvQZUQ6kKr7m/L7B3F1CU4GUsW5jPiWG/p32FOk1BNXRIWRjqC8x2dj8/obujsiZBYqzmVETfbrCCYNSk4adEdAVRjfcUOvSEi6yU7r/a4WLMtlE5L2nDaouKoWzGWEjKDLiBp7NQa/pwfmMiLNfUcOKj1FSr8VnAz4OzpRaYuvvqFXRUZxsn2u4LIJXqedDpBhSNJlRJKT8asJ48V9FF1+Kwy++g6g45JUVH7zRbAiEB1rlxEiNtlw8xH8Bk7ngssAVTy0PeXZZUS2x5RNiIygNOgyQnI1fl1GpBMifMuEVLVgLiNUZNK+9e1DcS4jkl7znl1GZOOSDqMicToySc+vtpfl8vaSnrM39Ky975gGkBUx7TnpV3PKoMsIzQn21bePb7kdVXBVFVYbdEdAlnt5BCUnA3FHRJKri59gk0UmHWd5R3kSnQvy2Z/T07FOKma5moBfnWCtl+VcRrz6hq7HYFfF7E0+nYFJe08MZjmXAUpNKuYj6I4IySU95w26jKhpcRRZE0GpVmFPx0+RLiMkJw26I6DO3tcNKq//QgTdEZC1J0lRBHVCXEZITpFZ368uH9pc0qBSy1bYdBgvTrDk0pFxGZEPI2kw2yJmIy2vSJJT9n7bc7BspGUXUXLZQFxGZPWyFULZe30E0/aupLwrSHvCr9BTfrXBZHmTYSg9FUHhOx1pGYjLA5J6OtLuCEiHm70npzkZStK3vqErzmWE0KuLjMsIabCCq2nBdKXLen6xXparsyfI/A3dZYTgXt2n0AlOG3QZUONXelZ6aYMi+6siKG9HinMZIbmk36zBuuLhMkLay3IuI35fBF1GvNqvVHx1J0reUXQUXQZksz/fY3LHAUnFNOfyAEUKzzrBSa4mIWm/Lx6SZGcRs5HOV9icvScJzgbiMkB7zXp2GZFNiA45yWUjk719aM/Kb9ZehV42gjqzFOkyQnHpQFxG5PWyii4jtEF3BCg9Rb7cnlKsKYKSUyTZ88K1iLBTetwisS7ByWUNI+zMXoFR64lNrMu6O67YIO1g3SG3TgzXQsaFazkXVxMHFYvgzq2LnTTHtivkgV4d+2L2BFt2cS3hntaovBJrBONuPReWsh6Xsp4Weib8XCH9cHXG3Xk57/yKxGWL4GknWEWZKzIki3tfBAWCWzg0hooGpzYVF3G57MwRCdpbSV9pmie3na+G1bnuhl1nlYYrublW0l2b+4hyvLNw2VrkRhSH79dt25m80tiwt3WVBUXu+3KqrL7jNzRWbpXE6th3qzwwdNha5IHCurLcmeO9fVnL8b7zT1Scd4VVcf6YM6xHThWxM+vO1lUaTKy7IN9T206c2JWOFBMMHGls61qk4Ug5Gw6cceyUny/ibDHu4j6wgS+sOVjbtlqHdd0o1p15ctZPmcMP4snVtTk9kOIuO7NX4MdxZ2uRuyPsza8drTt+9KYcRbosZS2yOIpz3+9aXMtuDcPWIN297w4HYYfN1iL9hr6tQdoW9mUtbtuXxY+3Xbl8B8oiva7Bua1Fbo7AQa5XpBBlt7p35nnGHHd2RUxiXSVX28IO+yu7ejnsPIKRPpgucj/G6pQ5/ICucrimZKe4d8LWIrct7mx/ZFkEywH2xZA5L1hzOkJxym+aqxmiK1JG2mVE3l6FQcl9gz2lqNSk3m9LcNLgqxOsimA2DB1wleeqOSuXAfpyZjmXEenUJbk6e1eyKsGvj6DLiOwVzkYmzbk8QOl9RxHUiu4IkF4VKQ26jHh1blW1YCpga59PyPrV3JVUeulIV5VflxGqvEk9ZU9yVzLrV8Y5regyIhtwDffyIigDyVrM3z6UZ5cB6eyXnl1GpFOcDSPtV3l2GZE1mA4jyWmDLgNq/OYj7fKApJ4sMlLRZYTyWpODSk3d43VklMG0Z5cB0q+6/1aFm1TM28t5Vn6lXtJePiFZPZcRkktH0GWE4mSfIskpg/n4JRWTbUY2flpRa7oM+G0d4LxBd0Sk9a5kPn7JQNKcywjJVfUpBKduednYvDxxym9VEbyS6TtKNhBlryaCaU4aVJcz61cpZsdgitRhXNl8BF0GvLyBkPZqwkh6zmbCt5TfmgSn7yjSoCBlFzEbnZrbh4q1zH7pWRq8Ipv92rPLgBq/vy2Cyms6MjUNRDaCaYPSniJdRki9K1dnz2WE0quJoPSrDbqMqGrvXUZkU5dOXDLFgtJ62RzMR9AdEVm/LiPyEXQZobj0GMxlhOQq7OkIuoyQAbuMkFw6ZMG9Ovu1vbRndwTUdBGzYWi/Sc/pxLmMkJzq4aQ9u4yQ5U0oVnEuI9J+X1whvqUI5iOYDCQd6WRuSb9ZRcm5jJCc8Cwjk+Sq7GmD7ohQei4jlN9X30K/5ZYnvSb9VhXBbMBPNF0GfMftIz9n5TJCZqvLCJ1dV1LruYxIc0lFmZAklw5Y6dVc4ZqEZANJtzgV9tJFUBt0R4Tkkp6V33QEqyqsIGvaZx3GldWzNe6IUGFkc1Bx0qDIway97LSTLG+Kkpwgk/aeGHRHgA4iqfjiNkMXwaxvXT4U5zIgezm151wYUk8ruoxQYVTZSxrMBlITRjrS6fKWNCgj6DIibe/F9+S6IpjkaiKY1pOK6v6b9ZsNOK0nuSup7GUjqO9QLiPSXFIxHe6rIyjHYEnPUi1pLxnE9xRBqSlj/eL2NH37yEaw5nJmw1CkbJ7zBl0GpPVefEPXLdhVL504ybk8QJHSXtJgMjJVRVBx6VEK0LRtR7StKyQjrQ0qrqZ4KDIbmWwYr76h19mTBt0RUBdGjWeXEfKW5zJCcspvhT0dQZcRWYPZCBp5WnFvbPvxfr+93e73sW/NH3ZRp6zrdlixUcbt6hkUOTsIOztzWu3cYTO98/pMz5yH9XxcFC/Ulv2B5okDsZFX7ryqyBh33bC/rmW3b9c4l5WgWLdnCT5zWwTt0HekzLmv5+NtPRPFHt3bVjhshxXbmQti30SkzfNpVVxJSTzGBj3jDzs7c1qLUNthNXv7WgCWVg/7bn7cbre3N9Sw2+3+mFnFGtyPNgXbF0cgfK837ONqMHnYURaxrbbtLjvCbnOv+2HntnN+6riu4rDfd9wXx4oLXZxOOHnlbHfYE3DF1anDtjriaqDcN09w2BcHUTSOp+K6y8OeWM/uHGRcnYp7Z925rQV0rNu2i6tBcBRxwy3PHHG9EFh3GffhRFkNK7vvKIvY1iC2jSgy7gm4yko3C/5a29Z9szxQs8ZpWfp+mkZUtEdfkuYKZV+WQLgobNg21XUtGqywEIedR+m4Yitnw1b8ljO+p9/t/LrZOezCalpYywkXm6IfUqwBb7T7XTU2UwfOjswrt7gvPSbs1tUNlLO++YndbYeuZ3vfQPEzRCtrhC2bxr5hF1ZTcs41ypmQCdvOt3Utfm31kytr7u2krWsXkWLb3LGuq0EXFy5u59JR9J5z7rPs7QQ3W8vRJ4pg0TxtFHFfOj3lhJsuxwc00/3tPi8+9hraZcTxshe3iAru1fakwVfbqzEoc7AqjKSiUpN63xHB77CnSOlXBuIyIs1lFJsFvcIlDv+GhTVsvR0dUMGlL2feoDsiKriq8qYNuiPiG/TSXHrMnzT48iJTNSnhMqDujiINuuOAI9ks99vYnbhuZA3zowAZsMsDpKIgswbT9l7NiZDz9qTBK9KcDMQdATURVHp1EXQZkY+gOwKynAz4xRVW31FOmt3j7d65e0MD9tH7wVeQjaEmv450GIL7bRVCR8YdAeqGrsylI1hV3q6kzkDFuTxA6X1HC6YV3RHxNb1hfrv3VzW0a2+z00PXE13TdIu5ek7kt6X2Nm2/kg6M5QaO55rBCW8emw7ZBW92QDRtWxxD4RoLp2tb8wXQigfuoO2N4JwMQLMbPMoHpLlsWUhyVfa0QXdEJMPQ9pKe01zSnoyMy4gqe0mDWs9lRNIecCDbx9uotIb518PLfzfeiWkYZnMAC9yTeWuWx/3hbME0/NNNqFTlDM49SgVuZzSJw7TwgBFr+sfYDsPQDNNM6ebHZS6+7vcZEWhHHDGAB/aPeQBBLYPp3cdD+6vSIrkrmc1q1W3Uir9JTyoqPdFApBOnuO8ZtivOZUTWXt6zOwI+TvCw3G66K7jc7lYX2ImcWmBomqHt+scMNxqwtYINds6Wtp3Gnk1U06MmoC6hNUJ7VGrAsFAOM40OHSogeqE31JrHPN8pUVGGbpmXoZ3ntpvnrl0mVLB+gkUcWxTIIEAu/YwTFvAhkVVXRChmr4gO9+v2nkTQHQGScxmRjWA+ce6ISEfGZUQ2kKxfqSjuKPkIuoyQAR80h/k2ekN1QjveUEuILrYRqCEm1wp2REcvDdqgG6rLwgqFPt1sLViHuoPjid77sR9Qh/oJ1Wu8PRbIael5GjrNPE7TY5ynkRUMatM0zQ9wEGgdHdQU+DDBKwRX1eOXBrOek36zFSLNvTjBOn5JTgVSNwa7klURzHLHyLSPm6ooQDO/jZa+phv3Nm5rufYK1qBZw0jIRkw9e3XDNI4jepFL17RTB03WT9Q6CtbPhu0ROohztzzGZcQYENK8Y5DXQoXt2n0c0Vaydo/zPI8P1LgZTsQIoz6ENo8YgVnAh+gfDhySE+THueVIclX1QRt0R4C0J/Wu5MsrbNaeItP2pN8rqez9hllEDMGeVLB/ptu9tG0dB08OVjBzrGMw1icbMVlL2LFOAE03tcPSN1bJZtYB+OMptGBDP7IhojcOqwpggWSLCtawDkLtn65HlcRwDr1A+MYYre1pwwdh5un+uD0+rGHqkmg9RbqMSF/3Ck5G8OXlw2VETaSzYzClJvVkwC4jJHcllT056FThfk2vu709m42f3tYK9n4L1pax1sS6ZS0YwO4hK9ewtmBolqxPN6CbZ1UJdWnhEIq1hwMptGroHbKCDROCWzBUa3sY68YHF9QnCrZg7by0HbqPbccRH0Z2MUHpnHEZofxm7encV6TLiDQnA3FHQN5ejWeXEekI1nAuIxSXj6DLiDSnyINme3srY6orlrfbWsEe6KWhqgBbBdtbsJZjLTY16OR5CzbM93loti5i/0/Tj6hW8NBM91LT4K3vFg6siH5oUDc7dAXR85sxMOPcx1i6iBOGaLd5vM/LMpOxVg61dEJPdED1PlYwlwcoUmTNt5S3rGcZl7S9pGfZgrmMUJwgqzJQkbrJVoq5gGUEszGUGfih3+7+YQvWdGg9gLWClbnFvQVDK0WXdd9KCzYs431E9bHuobVgaOXQYBVb/tRtwDjqjkpEcCa/61rUwvt9wv6BXiA2q06oTWjs0D1EKHyUVlo5VkLURnsiYOYch8Q50pdd6l1J3alwGaAuZ/oKS4OivKUT5zJCRlAG7DJAJyTnVxt0GVGVOMVmMzAdiCIPmu+Nwd78QVg32pu/pqa6iKUFYwVrrAVretamDu0StH3r254ThC16iltww4R+HruHGJWVZqhBpWQXsWlQpUoXscE4zsaAQ48KSy2GR6+D9UrtkVvA4cCR5KpuwNJv0vOr9dIRTLdgyUDUDb0m0nVXxGWAtJf37I6Aj+09n0XkBH65AHGanhXMHIcKRtfegqGx6VElUVmG/v7obJKjQa1rm2VafJafQEcSjVAZYXktadl9xIoKBoLcMKGRKzUYHUVGyCoYvMJbacE8Hob0FVF6Sb/aoMuAVxePusS5jPh9EXQZIf3WcC4PSN9RXEYo7uNZxNxzMDHJEWcRrZ93H9cxGBqdjhWlxRDsce/RRkGr6acOa3kOhqYKys00LkvPZX+bCv7QYs0zx2AzamhR4GkM0jAKY6toEyEcmo2I+rmCuTxAkYLT5S3H6Z5Vkkv7fXn5cBlREcF0A5HWq0rwlay5wjKQj/X4Lr2c5WgwBPN6dWrB1jHY6o3PrThG49ygzyKiubJKtYzoJ0KiooPq0eXzV6XshY5hmvkNECxAuReg+nacN8QYDBZn1Ed458MxGOkweOvY3bRJDsatR5CcRokQKZY56DIim6tZrqqB0AbdEVCTuGwElVo+EJcHvFgv6zefWy4jsvaMXRcU6ccv7wkeMYw2BINKgzEY3xg0Y007suVqUBXmtgGNesKxUblWZQwGaRXMniWzJqAJIsVHyf4iCMdlqGD2NIso7x02A7qBNhxDPUQtMlNsK/lL3ob1E3FHBUOjCA6DM+j26IBahKjC87vzw91xoW3NBy+2W7nVGXf7YvYuLJfLzjKPwlESbicPCzP1tOgd98elrKelJNjc+w7C5brsu33Zd/tiPaZI2LIFElZsirMVOx4RVr48OuvucLDtuL8uRz2qFUdky7I59qWsYSe02HK4oq/YBfD1wvntLkZhw3S7za7Ul8fBaE9w1KGlIts97EXCR8e3dM02Fr6uQaNtaVseY9uiS4ihF9jF/LGHSd+oYHCzBTOg+9ei1jzGqbwcj66hNYFIVDePPX0OrKHMyI7RudmDZuzvD54tq20uzLnvJHcAbyF2GzkDFNmDv8Kd6LJfEc8fYdRpR9lPNjM6zgvf+9xPrFCxKwz3u5erVtCIcHI7tyqs0lEOj6TmZP4BYE+rOl6dAAoQH9mgW+R5UU6sCmp3ArkSnVWlRM8cgXXsrhVCUSkVtbAeKpiV1/Ht5jPnO5r+/vYoDRM89QsGPNMC/zjoCo1hlpFslorNHsXDax/KStezoDQYZ6HQwCsqGNoktjooQVhxinPt0zTPExZ+Zwe+2K4tMxSsizhOLV/74Nw8+H5iBWMV59dDMBxD6Msyls+HvIP3z/6bsLxIAT0DpOT29gt4e7s/po8S9RrkI/haqLRtHIrkNN9vb8wM5AXuud+SF69CqUAR/f3GQhrBbwasz6s+hNvks+QHZxLpbvt2Kb3FDs2SuboSxjBx2tDmBTFEs7sU8EAvlGcBNnwri+rKttDQtP7Dr+HwA7CBHccPoBIiOJU5Wb+aU4G4PAJNOj+ZhzSzEbu/vfnT+CNkBBXSeukI5lAG0h9Dqq1kyYsyrudN5w09GD9lUJ6zkRaZWmVPF5kTydbqxpbHj1GUJ9YvmVvvcrj5uIuO1b2ya+3m8XZuhR8Tdoil0H7moOFIcy4PkH6TntNc1h5Gq7fbY+6tO4S+wXhHB/1648gmOBvBV0/SVUVwpVAcb7c7f6TkeXFDXsSIJu3JMGQEXUZIThp0xwFn0pLEnhjVB3TFcNvg9wJkKC4j0pwik0jbE1xSLW0vy+UvJzoMqFCbOjrLDxCX4l9TIXTilKLLiDSXVFRqTlpecDBgR1YemTkh5ckwNCfIrF9FJhshDGtuv2738sur+fGGBHVoQqruby4Dqm4f2qA7ArJ+tb2kwTQnA3FHAKrTuUvIbtKlhqUTnISyl0+Iy4B0BupAbMfB/6lLiLxAD8uP3vF7guJkkRaK2YTIHFSa7YReyRvGldhuPiDKBpxPsTLoMqLGnlLMJiQbv2wEs+VNfmBoOJaq8rttbG3f+RiUM1Y7OPtU0A4ddPhgceeAns/2j/AIYnTrGkAwyjkQdxUB7EnauR3ZHHzOMS+ODzaBAd3E7Q07FYaCjMvzgI9Ic4rUmkM38VXb+4OPd02j7oYuyKrbR5ZzeYAipb2kwWwgOXusSlvx2dHyl6juxo194VNHYMYlMm0+MEEV4KMihsOvM5ffyU2LfdsEtdMeNJIyfv02SkC5Iv7NlaIaWtJm+zEr66ot3dIjQC7pK5LNGNMb+LnAchjRIm17XtiOcXArGKqFIzvmwXYcgBO2+mHJueBeEf0yf+EJKS4HK1v20Zfjyhjs+vHN26OJEwSX11OkywjFKTLcbDdk7UlO2avgknNW3f3aGSTQWdoeULb2Kx5gQjNTXj3r+BSwgC9DN/xMCTr5C39gh5Zomhv0S6auXcrP5/is8Vx0/Yr0MMr3abBAZ4/K0G81EtXXwCpo8OniI9JXWJHmt7vJd8+bHvzq5q4bGYlS52z6+vHYXjdqR8SRMReG2omqD387cFjYVytqzTKG+0/w2pSML2cb+04M0Jc39PgCYNB1XBnJvXoMpgumywOSerJQp7krWXUHUF6lvTPHDytfOohEM+69pQ7dih4DZL59aeC8I38hN6G9erv5Re76drvcnT3qH+dlfsz2zRN4PreTHpd+51GAUOJQO7nwAYs5pn7o+OSxX2iQL4fyB3zuJSKVYED65TaFlioCLdv2yiwfidp0wYRbB46Haf1gC4/4+gKP9mmSCFTMomr3EfQd/G0layTDbS54xr3FzfNiLP5a+lT678MsnmapgGtyRpGlPT3i1eU3H2nFuYxQeq+PoMsN7fjkdetmua/f9WpLgeADlFLlrIgtNhhjE0WtZmvBTIMVzJ7988Vp/np1HK04Rqwt2N5qDfwVA27muGPbjxxMYEyOQt2igWsXBMqWjl1E9xJR06cg2R1KeQDuQvvXO1Hki1Zvv43nVyjI9vaRpGGy3OSHz6hyRIOeAGm+Zg7JG1Bf9NgM2qmC4LeZrCr905ff/842A9Py3XaT6j3D4HuFoNbsP0IquozQBt0R8HLO5QGKlPaSBpOBSHsXPRSqcGUj+HuGcmYpvaEGbUupYFbR7HVQfkbPqA79N4zCbrylopvPB/QcnABd6Tfunf8NpXAcKpiVJihiQReRHSgsWBd2vOzbKQT7YyLSqQQTT7huu6WcEX5WxTaqRBg1De0JakDJAfuhR+8fkGG8r1h/C4IuHgIarBE0ou1R50Jd2T1vvUK+/4qML29NoD/AcDZ7ESpgRarcynLaniJdRihOkbqX4jJAqim9F3O5MVj/7MOU7BeVCoZRRalgqCulgpXgWn6idS0W3cjOHLqMPb+Ghz7hwL6TvQ2BCmGwrw8FXFsw6yKuaPjRIUf5/KW1YOaQ5Td/haVn5sX1K+4Fw/7DYP48t7iQAYg6f3xbTi284fA1coMKgxND5hoWVFKMUdHvJdFAxh508EvzxcXvorFOU32yIVuzbKFFCErGJlU+gKy9bPZLzy4jlL1sZGQY6fLhMkJyMhB3rEAFe1KomvntwWswLNt43ruIaMk4KOj5kijHYTZKmntOtLdtv6AqofMzUItDJw6csIfeaaLe49Kxa1mAcRpDRLfTDtC15E1+KK+jbqaIU10tSCUYkH6xLRhOlqMzmvHX+gFq7xISaKf506U1XXyFnKMiO5C3gL3F4WdwYakrr+LRRpzfCZFGZfI4oScwoKPAioU+Aduzf6bwS64NIlzNCVLpKVL5zRrM+83Zq9LTii4jVBipgLdvC10x/3pAHaUIA2x7WIW6M0Hwe1qE3Vo7ODAMHyAxPkJ16O3rJ225M6Ox4eeSfdx0gkewTMk5eBtHJ4xDL75wDQbBkCiMdRFBnxvDguwY7FkOLuuHzC4IFcx+6lTQdGhU+NOmQqAGoI+INFhNEWHsLRiGVPbhCQxm2Rp3yKHY2wt+tx4o7lcwb6M4RqFHvWvWzuoRKmTFSb9K0WWEDCMZsPTsMkJezqQ9pZhtweS9USpm9Prnd21UMFyDhhWqaxcr3vyBzh29Extd9ZzMo4Mx70aMXzgvtvDSl3DQoSkjJ25iKqVc4fI7IAP6gOTMbb8PghPZDPPGcNKSgVmIX00wofxie36zQV6sFawLNYE/tt9qAHuMrCycfYWGCCO0YKWCLehHc6BJR2zBgue9BUOPkh1S1Ej+yrHlNq5/kBKhApYpTvpN56qssC4j0lxSscZeOgzJXckr9U4XcSz/y4HKM3UD38qwtswehLWcFuSUA395YCUAZQ3KqBVowVaDA9RtyIR2bB+5bPAIHqfp4Ua7h+BQn2zGjL8kL2iXdujRASvdoyt0pXMZITmQy/Mx2DoeZUK3+HoLtnURS+eRD7vYdTTuAP+5MMHsQI3hbFCLBPHjZ3u9jenYx2BmHsMufluGHzZb0GvQXwNwGaFiU5Fd6iafvucpTkfQHQHKqySlvaTBbCCphHRPvtnA6rEWKvtuEIAx2Hqz5s/hHg+b1ygPuDjJgQZmmjFcojY/hdLw0yUOMVzw+JVPMhjKLCKG/OhsYrxhnTHcrq064d6Nw5adUCtpxfMBNRzR3z+c8GH92ar3aQy2TXDwcZcMd781LGjQ2UVEK8TuHg6ezyJ6xhXz6B6i8UIBR7C9/ezqDBFwXW65PCAdiMuIrN9sF7GKc3mAIqW9jEFO04crG4AzflP1L/vs0/QG9HBMNgtLpX+98jH2/EIDRwwsQewgcvTEvahgZv7SgqE+22eL+Gki9BCtGPEXoeXRz3hfX6q4oGYMxrg8nabneyvrbYgThe60PxTZB0nTNiIa+ATD3RHbGIyNF3bwjpbIXsfYv+IEBL+beXYOKeapZAhuWs9a8mIgbmV3xHvlY/Vnh6W5EtQRyp7ScxNHrBTltr2jd4AiC2dmzAWsEVxJO9IpcUeASlxKj8OmS9En7LWGor22YNs0PWEdFcJeaUJvqedwrON7Frz+VOXYAqcQJj/QYF4PwZfiwW8yO8oYDB0v+74XwHrKL6w0/biwylJnHvePsBw3leBjiA7BkWrLqxVXIC+2VybQz9ueg7FbvHYRkQOsnUWrtOIXrP1A+7aF+cT9ZbJHyIcWLCRkzWY3j6iMyAA4ONMkK5jlzWkru4ByfGZ3HtLWTe9AlfWICwGQe8YfsBLngM/Q7DO6nPCTu85KXk5sENSVU0oXFofLTfcRhwdfDzIllngwewuGwrFgnFGKgd2Am35twdAbhBK/sIAStJZKEKXa8c0FC3mHvctnr2wAKESsZeWzRfCF4tUMbcd5+W7perSDfHI98tNE8Hre0rgog8A6PXko2PJ9zU3T3+RAFjCSPkhihrDRtf7swKlPUUh8gmTwXjW7iLhh3GGOwzPsVx+bT5i3hgv5W0winDvvNHY3QG5usBRgoTRRdi5tf8KVqcPL7VnsTyt2YsP++brJkguBKLuynHYnYs/dsLNXJ86rnYtbq36hgTNLefGVWmyd7AXB8c7HyQuf+FqxGnqSvI82XXllbpyXbqGSyTufZPnCl4L5Hxv8Clex66+V97gTcywHzCykA98z6vgvbXycZlXUPrLc861Gaxkw3OeHUoqRIFWCgwjb7mtb6RcVSTVhrHhrBw5qSLWlsLQ5fJ5uCbTZ+hYNOJ/rIZVIB/Xjiv4tPdq7iKwirDtNeZ+wVLDOQrfIuJemmDeTxvBj2CXcbbYSK7aymPOKwlmkNqwTUBGKy6LGr8Y1JTJtgpQcs+0MadBlRDpglztYeq6PU5r+dttGTSjfA1qoFVOHbpqVBBtklb6ffRQZ/vh7MDZGEypTaZdK08QGDgWj/HdUgcevPDIzNNsL9OvwzbQLx09/maPgmpJkgt/hysfM7DiAjfz+kIGnxdv063wDP/pir481gz0QPKDlyXIasHfBmGamkf+2BbdVoxjB9W16440o/3THE+sDuCMUV0jctviwhW+0cbGdLdsql6C4LYWMq5GRIPPMs8m4CrW7vYR6grrEMsWCq/Gr7SnSZcAw85sofrCiO/wyCr5grTx+AnjkJ8LPi4oA7OdLxcsO51DGtvpUiCM2iuqEuY3ZzxFXrycFh+K0Z+74g7BzXqBxDj+NK3pb1Ig9ceXI3SjO56mOPQMNRfoR2Qb3FWbPqmBwLzu3uowWEKRRg38sa119Z5/P2iinufq2aYQtsGHlL6YvXNmpRa/rxt9e2+dKj3iWuDOUnsgulYMyVyWnPLuMYGVab8AF6Oijfl10ledPY9jL77lWEzIhLiMEJ8ub9Cs9m7C8OFxVfuJsf5Ve574CqkQ7Hdsw6ffI8XPTZ65AcjIygqQiGuJf6KHyrTV7buK79UFKPHZupYI4cKsjnNvOBJALWxDHPbA6KKf5/vZW+kUB6axxGZDI/oK0vWwg7fj2NmJYY+fss5v3N/GO/fdE0GWE4rRBd0R8MgzUsD0vUEd6XObDveY9zxHkjp/4AycUT1QZhiUDSV8Rku14e/ZjgT8T/K7+eXpAJliQmlOky4gsl24gOJP19vaY+r61Fw5RveKvk1a8On7p4pHlap6DbVyHvLiVn253/TTe3m72jsqK97xGfMsVljn4zHd/v44E/myIGe6aMpOe5JCek5z0i3V52NDTB5z2Wa8LahKnPKvyFscaG7KJy3LvRxr9Y+SADbRtPfaes4nT6ZCkOwJquKeJQ2k9NQd/PLr79qmGFSoXXEZILus3afBT90vrC91uGHve7vaNynLqgOwlzob7+8ZgLiOC36ZdZn7Sl6Ns9BaP2unEfRDIBqnnMkJx8jI98738evZbgT8Ww/3XqYJ9JsFn5O9vLiMkl7Tnngf0DoHt39Iu+G2/0FOcNuiOiKTekULvkHmx9NeJ8GwYglQJlk12lssm2BR/bAWTlzPJ1eW+Il1GSE4adEfAq+3lDbqMeMkYLELZS3I6gi4jsn4lp0gZa2zLr6e//PtTca1gNdmVrRDfMkwRlNRLKyqqKoI1nMuIrF/t2WWEtJdWdEdAVQRJTr/uf9cch2zBVC64jHh5Dkq/inQZoThpUFyfbBiS/G1dzrRBdwRor1dWh5HVcxmhuM+NwZ7/dv1PxXeMwVxGpLkqzy4DXm9PkS4jFKcNuiMiGYbUk3eApEGllo7gi/WMQwv2M7uI6SvyLGdO0F1ElwHqcn7qipxRk5A0J1PiMkAmpGYMpvTSCXZ5gCKrmmxBylx4ZvFnTHI8SdwFQrGuBVN+k57Ten9ll67GbzrBOYM6wdKgywClpp+muIxgID+3BXMZ8SwTzsjmvgxXGnQZITlp0B0B6TAU+eIKm27BFKfIqgS7PODVCZa5qjRJ/Z0t2OxORzbBMhOqCqs06I6ArN8/Cy9OXDoTFFeDl9tLRxrkj2jBZIIFmc8ZgaTfL7Rg/Ahb2w5YuF/FtvEXdWfO9qf1gsJxH7bh6S/0DopDfqqsagx24vj9g7ZjDCLOx4RzW4R9I8JxWY+cM4p6QgYwY2QxYurIx427HzEGK6k54T1ul/aroqhLioCL+7Iz+nje4ZwrmMMVDxDcpjcs9oM8w81lgKAc5UzcJ8C3/RKwv/kHLEWn7QSV4GwmHLmGfwkp0qJinEjFqpJKcBaPZz+4ZGE4bcyFv7YFs/h/CrgzluvJb1SY5P+Q8JsW24ul0Ors24PjMvBDtwV90y7liy/INn5Td4V9r8FY/qKdB3CtP+/7CCUFiAT/ZvTXNyITmP3sDtllsYxb2X0IrSXYQPH31Hwv84os9w2wNyW7Y0KsVJm4Lv9Mf+VzMP7A3KK/rsG5rWeiXfidJPsGhf1fVDd0M25I44jbNb92MdnnXnt+0WKeUan4/YcbP28BxdG+uAebzcL/zyrgP76BLRj2WmqKp+W6OtuOv94e5dsYwOIxidDcyoe9rfvC1bYDChH1uHA9YPSf3a3x35bg9AVdxGPKsJbltF78cueSzv72i18fWSO0L8CJOUd3Rzjjaub1BOVfcKTM+x7q/Hj7Ndqdel+xmeMMUj/jTQ6XB1zJfu6HhR+sKN/GRTM2lG/I9L19ff3Gz5ks8Ze1nX+Mzz7WbK71y2ZE+eyT99T5rQZi/TPlA1QE3d5yf9u//PDnYJju+9dBdsiECPJ5go+IXDvyD6qV1p+EgX+CGH+q5pDxBvkj3uTIXs8e1w+j1G6aO46mWYzQ9UP/jx+jHAb7tOThY9Od/wFrOy5uDxVsM2xfBh34b0Kon+zpcyhV/sj0BFkGjbMPJIqzvx38Es31w3Iqps8Td8IH3NM/4vuz0PSP7XvDEU9y4WfMIj5J3Bnl/yBnNGHY8fuwqB32NaLBPuzOz22igvGzhEXfWi4AA7O1gtnHbx3WgsEmYH+BYrJ8regEERcnB321/gB097dcBZONjuCkWiD/lp8m8tOVyeQBP/ZdxAvXLlOLxutuIx5WMzRVwzzS2ZUPl9m/RrGCreCfj5pDt2Bt+dpXQbN9aeUSMiC4Qg2PS3P8h0B0FBBplZCniTvhAz0Uxb+igvn/35ygUsyc+c+MwRrvgfBfDaxI8JvQ7dTzR36tfSWvWVCb+LVoDqWK72sL1vTw4rAvMYPiA5MBKvYkK3y+accpLobCtbdf13bij0ArK5jLAE6jXSAT/DwXDH/NE6PR/sHtjCfUj/092OVy8o+umFR+yJ31qUWTUwZQaMowDuNHKHG6t6cdPhDzL5OzBXN7Dc/zr7ewli+no09uo68yBts+bX2ALIPGyXbij4BuwVxGPE/cEcpvJP+aolj+IvGEZ6n7sWMwkWIMn/gV86bt+G8HDcYO7Tz1Cz9Hze+52+iKXyPnWMraoWZtwdp9FrGfWT8N5e8A+KN/fgjJ6K4X/ymp4rJyaCf+0BYsXcFeNgb7cS0Yuf/Su4joC/7T9vwC3vqtaJumt7/9Xib0/Uj2cZo+NQZDAUN19cmPT7xiZNzf1oKJhHyltVoRqb9mOiA/BsP2I1oweekuXMPBFv9CoEcL1mG0ZM/B+MFPtGwYUFnNavgfbau9rQWLY7DLczAMytjB5F8LoJupXqR5p4X9+1swPQZLctHg31IUm/9AC3a68vJyugzolrabbYgFYOjFv9ztuvFuf8PQ+zfvD8/B1hZsHYvB7PVB89TbXwi0NoSzv3e7QkXQuD+6BTt1FIinCTlCUJoL5N80Bku2YCD/Qy/7sgXDeAnjpMcbKlbfD91447+t8j9qurn8/RTGWHt+HMZgBfs/kXgXkf9EOthn/PgIm4ZW1YDn8ftzZxGzLVjV2/SR+98s4h8C0YK5jBD3VbRgTGvLvzTmuOsf/vtWh15ji2o1YyXX32d+Bb/Mcqx/vd09Hva9Pr6ruP8BMjqb7GUujf3NHdCgocOI7hqyusmXWP/RLZioYCIhzxN3wgfc3zQGuyZFJY7kf+Y5GAi+q9kP/fhAn47/S1c0BvTqlsdk/8yGuoHTnIa374k37VSao3Ymd+fwrLy2aLB/x0czZiMv/nzI/kdYlkGXEYX7obOIn8uEgt86BuM/QrnzIzTz/31mDPbfeReRf0I6jXf06NCxsxcSC92io2gNVkuKf8g1DG0pIesA3kh7hsw/a6MC0dsYjCoYyPlDsHJ8geCK3l/Wgj1PyBEyDz7w+1s7U7ivpv+j4b83i/jRpSto+KZ7x79FNbSlK4c61K69uvP/3iiEG13Truoc2hG0LUyo+PkV+btaMJ3RinR5wPNcMGTGYAP65esLauzXl3dpvgDzTJRqxX8Uyb4T+skW7EdUMJcRydxCW+aOiLRBQb5Tm44w7qe2YJ/KhIJMZ6od337xX+LNPb/9+vL79wM8G26jvZ3dP/L/MpQegzEXfuxzsCyXLR7ZIpN/Nc/2P3QWUeaMy4iYWZmi2I2329u9NFvdHc50rThhmG83G1ff7J98m0/8jVe+BSP1d7Zg5zc5ROL09XQZobK1xl62dhbuj27Brs/B0olzGfGRXmYMhvHyw9uaZmH1+HIFm273ZRga/rUm/wr6ky3YVRU31jMsxX9tC2bx943LFUeuHGF/WgtrFnwn1wvhaxHrwpVTKEcU/rwV/T99DIa47rBYn2DEidXcxevOQaAovn1cFDkhhZV63XifUStYRZuen3GwJyoYW03DgOPyvL/pJ4zZ2mW2fiC/AjGXRyroIpbQWjRl88AWbBk6nP54UFdasBJrizkXS8Flxe6v/SbHYeGO645yYuf8yLPj4Cj7A2fO6F4Jc27cUaxuc3BdNzvH/XHhjhXsT27BLN4bGGUehg2M3VEKUcCEnblChGNi42yfa8HuM9seOJfHOJVmZ+jvGEz9341zuKg4t3G+/Sr/dt10D4zZ7uPdxm0d+F//92b/TdugOpdHMB0ftzRowWAOZhK/L/cWjJFeFzu8gBRasGtz92ej3FojVJbIbFKZYEXmhKxByX3K3h9dwa4xq0/wEZHDvf7DoogWbGJvjp9quE89juBaMBbj74VY2zi24uDqZl8U6R9vOHhgnDUPaPLKwe2BmgU9H8qx19nzOwA8WV6bex//ew5WkORU8aiz96lAZDH+I1BVwb6Sg8kx2DRg8NX+0z4efccjNEFvj34Y0NdDy9ZM/KvrAXr3vkEzdZvboSU38CMjOEBzxy7m3oKxqlkFe2BMhkqovmhzRP45GMj/0HOwZ9yVFGqaVJy6AT73+/e/yVHXBQhkZr4NFWfhL1wX1LKxRe8OLdiCpotm+tvb1HDyghVnwZiqGca3B0dc/f0+s87ZwWCSY7DyogEq5qO1WUQame4fVrBPziL+hBZM5ogiVSZ8rkKcoAxmAzbub2vBkgnOcjFjsi0Y6g36f/NjaawFY5tlbRFasplHVkNQp3p7R4cm+VI3K5gdlCq46sHkgwM0Vloedfe7VbT3kH4ORvJHjMFk+XUZITnlN+lZ+1Wky4jCfVsL9omX7QqyLVjV2/SRSrZgE1+7uM/3ueX8xIIW7K18X66/swVDe4Tqxi87lBbMKtgdXcT24RWMH8rbWzDOivDXStSHP86gyMjv+OybHP/1FuxzFeIIyclA3BFh3Le1YP2IW767U0DMvv57sK/kYLoF4/eLMJ5q0PhwDIbeHX9idGiZSgVrUHlQ92z0NdhYCyb48aMyBrMOIx84wxuMsC62j1/qu5ZH5Mdg2OrGYO3C39kP/TTPXPcZzm4qDyLsA9TrWZ5o1jNfhyqTzeV3xNlyni0eeT1Fuowo3Kff5GAGlqc6AHM3l5sc73/Y9zlAZnN9go+IflMtGKqU1QqboihjsHZ8u/Pre/c3VBxWIxRDq2Bs6t4e0zxC2x518Yt9c5nGYMUaeXQrNQon+Zl0qL56FrGqglm3114KI94e67cB0e6+lT7t8vZ//GI+z9r1Rav9y0eXX8Xlyg/t9mp8wJMEn/Gy8rHic9ynWzDUFOSgDTqsAP2ykfuH4C36czc2HbPqBJ8QuFwLZt9pZV1Bskvxa+z5FgoYP0GORquMwW7sPbbz/df/cQ4fY7B/huVh5dBer4JeKbT38lgMFu93mMl8xzw9BmOKayvY+uzBHkRYb5bgUwW7YXLGh08o+CMqFgomBFXvwzS8h8OVb5qhW/iCWilyO+QldhnxlaKwQfpVpMuIwn16DMYxPYYg5pvjh/XV1w/Accunu4jXCqYsVI3BApdqwTi3UQRKWuvd3mHiRyCs7DWTfXKv6UZrmPhdvrFDIbSTPf8cqfyGFrUNRRaFk7UN+uxB9zOMfHy7+uQsYtUYrHSCUcEe3TC0y+1XmYJBKu8+pOQP6Re+MlbG2Owor2e+injl0TvlNzVub5cKJiEy4XveRXR5gJFfaMGYt6XZ6kZmZqoF47x1KUtZ6AqmEidzwWXEB1ymKNqbaEApTesRZ3CA1WmnfE6Hkq9pWNqhv6q5F9cC6DJlP34H6TEYyapZRI42EfN2Li0XbiT8ZxfeWe7oEns/hs315mwf92m+53o1z7Be+abr5/GBuoWWs+Kry4kc/RQ+Z+8rFeyBG7H1a6bHg3PPGOiW4S+GxLixDxzw2vdP+aOnBf1nDH+/uwVTnMuIyNV1piQGM8hBGvPrRfjONzk4qWMtmLdWSAmvdIcCUJ6yG9j9Ly44H3151eXrwJWfm6HtF/5zHbqiBDqn/PxnXPh1m/PyhIuHvgSnL8G5L8G5LtqeWLjrMIr6dAVb38GzuxUrGPrddmOD5GyZjTQ4e9Y/+HsnDNyR3+uT1DR01Rcm0pXpA7//woR2Ny24GMiAuj7TCfkxGLaqWURvwfjgz4zYHCkuzYTjrdbhPlrezgRAogSMNq36ZbCCtQuarlK3VqAZO63no2fL9ez7+h8teXvgv1LBMKp/tBzPjhg2IJfLywk4haH/ML3dMLjAcYNeIf89FXmDtuvTLZh6S1LXEUW6jJChB/JfaMFQPpHHb9ludA7f2oKVCrbWJVxSmwIdORQrboItWHGhxVsa9FZswuOrsAqGm3gptiuYkX8jPl3BFmQ2uwjskU/tZFWr5DA6EPY8lW/codSzZ2Q/3SgV7NNjsEfNdxEF96wIrvgXWrB2tix+8d/65Z+Dgax7k2NrwUqThBasXG62Y6x8FmpowVDpcB5nPnczPYJ9l6bl5+Cti2h1zLqI7HTt2+70o+c4KXyo/yogoC90EW8jH5ry5bp7h+Ev7228DuwFIt/bx9sDHSNodvZgiJmOHvofMIv4UUX8F1qw8udt61PDF+EbZxH5stehBZv5agquJYp7h06cs1sLxsfnE8+UK/9FrFeen7se+bfZqGW3t1d2Ar4Rshi/B3YRW3YVluU+t7ylISs584HOITOc74Vj5IXLghGZ3eE6G33xInyuBZMVTBWjLOfygED+Cy3Yv4P0GIxk5mekz7G3YLx2HGzDgVrHEo/Vf3GzzSLy99k4gaVmHjFe+baf7ZdAb1+vYDJnKqDK1nMgMZ9+DoZqhIyfR/QL1ntb97gvvXcM4EaOLANaMKtgrFpfaMHkL9WUhXQL5jIicv9CC/Yutkn+T+Kzb3K8bAzGn4+yJuFClxGR/QIO/NqC8ebqZz5+Zfk5DrdWPmi2v8S/jOqeJPiMqrfpFfc5e19rwZjlN7ZdbLV4a8HxY1wffyBLOBrDjsQwW/a/5jmYSom8oyT1IvfNLRifLX9t8l6NwZpneMVzMLRgd/4t6+MXb5K4xd5m9nxxSe3ib2MwPmX2MzXzprjy/GRAAY45Hpv5B15/CAaXGfzTffpdRO8I3q0buLZgDfqB5X7W9tO0zGi8OF/Pd/TGm7VdXxmDzR5LSxI2nbKddTVn4lFhNLfiq1+v4NuZ5a+nWBaWWf/9xgXIyLfP5YiDLdg57lb4QA7HHU58NVUFGFGzT1jeBeO7iEhaN/4qtQe9Eu+jeErQZ7HHNRyrvX1uQBARr3y5TODathx+HpxxeyU+Z052xN6Dj7qG0e5mqESl2bK3P9mKd/w+BS4FbjhowjAau6NDAU1ejE9lOWcRSxyPKcLRdS386oy4MmcORyS+XBRxk/m1jkZQ5pD2lBk+xfhSBbMWbI+4OcEKU6TqnoOVl8GGiS8c3u9We9APXH8X4c+ayfDSDy555sGPwX8Rou/yJHFnSC6t6DJCcCW3T3ju9/PvIi4PzhCVniKn6rcJ3DIQLn/QVB788N27uSsFiZmvovEU3z4G+2pRRMcIw/1yw8a9/q206R+Cc3FfqmDf+RwMLYe1Hw4Lg02CnTOeYmWa/e9VV+Wv4FrBpClFCu6TFeIIyclA3BFhnLhbfIA9U12YnX0Sg9/QX7/pzWzmRyhwN4Oik0nImMl0CPJ5gk8I3FeLIu412/ut3fofHR+jrgVz545niat7DvZbkKtg2cv+quKx4vMt2CcrmMYwPhvWfrUg1VUwlxEf5XRFC2ZvZ5rzPlpds/cvSSwz2u2W/6tjP6Vqev4ckW9QhVvSJ/Gds4i/BeLKP0ncBSpfXlU+VihOB8z951swgaFbZv/yyxXbUPiT0BXsakhm4FeuyFdbMNYqvp0JU3w7097bw7CfHeaGH8LhV6X42UTUJrTm/Lb9yK8mVrVgV3/PElc1Bvs9EC2YSN2zBJ/xquKx4t8egynYuOvZs3sMgb/0LnldC6Y4lxGRq2jB5r7Mpi58T5NNeVv6jGzc+ACer2RiWMo6ZW9n8ieJ3zUG+ysr2Pnb9C4PkAm+kn/dGEygGfj/fyoMIgyKPwMdM2FJWVcBPs+Egq92plCB7O3Mrmnm+1ReHkNV4qOhlq9A+NuZiGaLpotvZ5bnSd8wBgP5M1owlxHpeqP0pN+cwd/Rgv0rSM8ifi7BR0S/X73XswVr7W2iFrWstRbMXoGwtzM7vv8wTvaXwT2/LgVpH8axLqIZ+CQ+0YIBlbOIvwPi1pq+ni4D6lowadAdEU/1XtKC/SuQb9OLxOkMTGZC5L7agvHRO7+H+OiXx9g2pYKxc9ha2+bf4ngs/OxN+UIAXyz78uTPZ8ZgIH/GLKJI3bMEn5H1+1HxWKHKmwrD/f6A/weryn2XRE0LNjToI47jo9/ebeGXRLkxBD4P5JRheWDBqQ8bg32xguVbMFI/ogVT2fROoT4gfQNW9rRBd0Q85f7gFkzGTCREjsEU5zIi6lWNwfgqy82lVTBWtHH9pSXHXXw706c+Zn7yrKoFy43BSP7YMZgilV62PsgiIzlFuowo3Kueg70eKmY6sz6V4BMCWdWC2dMItk9rBWP9Ke+UDwswsfEaxrfbPE38TuK3tGDk/s7nYOfBwZPEXSDKQt0YzGWEtPeU+/tbMJmBKmc+0vvyGMw+oGBThOhtoxKVdxH51pS9HdaVtzPHjp+Xwmjs7fEoLdjXng9+9jlY1e/BfgtECyZSJzmXEVm/T3PwhM+3YD9yDPY8xQdEva+3YA/ODUJY/49ziqT5tnx5O9PelPW3Mx+3+9xNNgbjB5hUND/Cf/BNDplNTxJ8RrZC6Gn6JPc8Mn90C5aaRUw/B3ueCQVfLor+jisEj9YXMQc+SKajPCUssYQbrvKSFN3kPo3PPgf7Wii/D7kK9izBZ3yuPpwg7V3Jd8L4qS2Yy4iP9L7agj1Bu37r7AKvYF/Ff3AWUV9PlxEqE1SFkIouIySXVCx6f3QLJmJ2TYjuAijOZUTUe2Vnquk6/rOKChKYnp/KID0GI/kzZhFF6r5yiTck7Wk9RbqMKNzf9RxMZ8KnEnxCIF/ZgnX8Cv3TtzOXL46+Cj45BvsrW7A/5l1E5TfJFYN/fwuWfw72NBMKXtqCtd17b2diIObOr0CPwa6wFP+1YzBPBJNBt9gEZdsGHNjxgQTOx2Q2xeNmdASGzmcaB8ac1iL/9OdgHtUCPzpvF4h8kRypdf17JrRLC3aKvO8Pq3F/5yzizOivyUBCbH9cBFnWkAFcNsWwHtWwUq+I4yI0jTqwRjgbV+7+4Apm3+Tw6K8p8XgfF6YNMq7Bz7Zqjqyf+2uKorVgW7xtBWx3ArgfMQZ7lrgLBGfF44wKe5/8RMUPmEX8XIJPCORfUxTHz0xy/NhZxGcJPkPVL+k5zalAXEYUPVmM/wjoCqYSl+Rk7rsk/pqiKMdgMnXgfuxzsGcJPkO1YFl7OgxFujzAyD99DHaCzARJugz4SO/Fz8H+NTSyBZMpxva3jsEO0BXHHRFpvRcblJzth4f96fAfCH55250B17jW9bED2d9ul88z/4kYxl+jyAaXB4D8T43BpFpF+dB16VP2+M3r8pOKPwzD5G8aRai0PckFd0R8wPHXWn9Bb4q/KlP3xCfU39IuB3y9iygzIamX5z7luZn4gfE/rlw1/GNtVfNFQrKTHM8zoaAdb/cX/5PXv4DG/2/tDJk4kD+jgonUPUvwGXIMJu3lAvlsi9g+ft0e07T8Yct8f1NfbpcJ+VyCD4hcwz/RHxn6a9eXLtP8eCsv6Z+hkgf8nWOwRAumLrtSzOrpDEwafI/rHyjLb7/+sOXtTb5pJBKi7yhf4Qb721KE/qrVdy9d3m76/1lF4ix1P2IWMVshdCZkFV0G6CLzWXst/6qTf47Crew/2jSb3TR72O6PUf47h0zIu6kL+JBr+G9vFoOXrNg2R2o9H4v1jja2/M/EGYIk9R97m/5K5ouHINN67wZiP1h6iq5zRwJd37vLofzm7A3pjHnVg2agGZAV2QRLtTPZ911FJgg9/hvDZ1L3I2YRZYIFqfWubDoHVRjpgF2+Ek2n765fQzYhSi/LufzX0L74D5oJWTyeXeOf8Tb9k8RdILgav+lylA04G8azCLajHH8fke76uYwQkam6o0i/Wc8JNBO/mK0CcRmRDSMdQSr+2DHYswSfIVswlxE1s4jpK6INuiPgmT1+ybYcFegEuyOiilOBuDwgaTAb6UxC2gf/n9oPItKcIGXAMiXYfsQsYk0W6sukFF1GZP2mI+My4jP20B85znCpMLKJexbIGXIMlvQrI1jVxLp08HUUOZqUfiv0pCLJH/ugOZ9bWUWXEcrri+3lE4L79fx2+p9YpVhRfnXRynp2GSETl7SXiCAfrY1yWFrD6YfhgiRV9x/NvwWigmWzRijW+H05J69SVo+P1N5Or19Ie9rzBcmAX20vrZfghvnGt0P8KCIb6boIgkQL9h8ag7mMUOWjLveTntOcDMQdR0w3IL5AmPUr7aW5CoPa3pX9Yhj9/c3/uvqMj/0WSE6RUhP43xgs7fflBl0GKL9qSKLMwfP4dns7vogqw1CkywjJCfJV7yKuqMnAE4cx6e3tofqI0q/SE5zsIkKRObtvFFD8C5+D+cciSho8JcfDsp6PsW7SN3pDdtnC1bfT4UpdSNvOFPdPDeyL4vQifceDdenQQ7y9jW2g1JK2d101fya0X24nBms8WBf7Pf7XFg/FFhjiH0LwO/Qbty0xvPyyCpfbwvpVyLLu8p/ldvsjfy3xDto7vyluCXpvPR/benFuei6MX4+O1JU8O23HCrspY13lCRdu1ztuA/YHrqwHyrhhYoeofLR2O+H7wpTVUOS2V7TzcZW0JTiuRedAvbMG17oH4uG+D5uRtot7y24/4B0HLTr6iC0OI89tdUWuYGfP3CpwB4jAEYqlaNbI9/ebfOnsz8X2SeQdIm1PE3xGelJYQenJQFxGpLmkPf7cA/drlKdwVvmtiaDCdyT4SwYbG5O+2V9DnFEVhiKVJin+COevqmENv99/fp05nTUuA6oupyB1+U0arPHLZz5WoGJ5qrEnOUHqIYnLgHQmvGpSgmNSq2Hi7XeZ0y4jJJdVJDksb2/3aeJfKP0dmB+/Lj98lbmlOJcRNTd0mdOqvCXtpQORHP8gi+Up3H5kuBUJfmLQHQFKT5HpxH2FazkmJUQLIvymOXlHeep7mO+3t78F/J2S/Y/hEdmc0dnlMkIaFGRWTymm9UQEldd2LqXp7R7mpUUg2XDTCZZ3lHQgLgNe1YI1S2nSb9k+YvqKJPWcG5bxXuLxV+D+uD44VInL5kyac3mA9Fvj2WVE9nJ2uFGWLNrLk7Z3ZbNhpCP4u+xFcuCYlHkS23RHPsGClJ7fiaL9HKnrymrYjjbuxGC9EFgvBFb+Hue8XgisFwLrleUPdFSSXQZkszDfY0oGkuZcRtTY8x7iccyhAqlqIK6kzEDlOa+nSJcRKjJBsV0bMPlPltKgywCplvSrFf94qFxIpjidCRVcvni4PEAadEfElRvG0n9mP3qbR5RxqYmg5JL2FKkj6I6AL4TRLOUH/hxZXP8oLBmGDORzY7ATZCgKSXvprEmHm7SXjcy3lDelmA431+K00+PBvv59fIzTe31EHW5SUellx2DKnAz3NWOwph8fj4dlyGO+vMyRTZyMYIVfnTMVBuvKrzTojohvCEOXQZcBKsEyzkl7TyJzBZ9I8+cqiMB2WkX6W+4oL9f7AseM6G6/lsb/PvYA4bcqMmmLL3sIsULZS0fGZcRXsnqD1FOkywjJSYPuiEiGoSPojgAZBtC9vR07Q0ove4WTkZEZKP26PEDpvbAIDk/+WyPdZKswZBdRcslAtGeXEdKeIl1GpLkKzzrBVzLbWukwsn6lZ3cEZMsbKbRgH/1aJR1BpZZPiMsDkoFk7WWuUnt7Wz5h8ArJKTLr++UtWDoLkwZlj9/lAUl72XCVYv4+qDiXEZJLK/7zT//2dnyzVHmWV1joqTAUmR2DPYv0GfoOoDiXESc9ezG8LjLuCKixl0+IywOU3xqDksvaS+tdWaWXjWBVgrVBdwQ84/oXtmDZuOjIuIxIcy+0V1owPwiQYWQDkV3EbBTzLZjy7DIia09GJsnpCLqMEJ51glXALg9QejJglxFJv+krAlxbMJcB+fjlFGWFrQm4rggeOft/w2zAWS5vL+k5a1D7VaTLCMXlA3FHQDaMdOIEmU2wDkOSLgNkIC4jqHdpwaS9K1kz6ExHUIZRw7k84ES2N1YwP4io4hSZ9f3yMVi6gVCcy4jXj8GSBtNcUvHV9shlWrB0n0Jygnz5GOyFRdBmEeUVruBkFzHNqUBcRig9pVhXfqVBdwRU+U1y2Ui/vsKK8vYsjOsY7Kr4LXeUb7En9Y5kacGyBl1GSE6RSlMGXHP7kIG4PCBpUKol/abDqMp+adAdAVlOR9AdEU+4HzwGU4ouI05cGYP5wQEJzwbB6YSgbp9WsVAvHvvyRPuyBOe6bJ+82JdPBBGc66J9x4OyBOe+rLttxe5wXFa1nHWwbqcOHDsQ5tjW/KK0VchYrwvCLc/BDtxleRJIPCrLujutl+V6hbWeXILTF3Dx0Bfjw1q4j5b1OZgdHVZs50VxpnxerpqW56e1yAP8+ETzUGte91IRmwuDDNo5udrme5bf7eCwPwEk+bOeb9tq24Gx6AkcdXwtuyNDCPa8L64zfzyyPRMM53W1Le6ti9h7STS4sxzG/So2nI+Nua6+CzgfG1bluN93h/0JIPklXj/aYAR227pyCvsJew5mjrLF1Xc7Ahf3ZzWL4FmPNewKyb1whEkw/Asq7FliLkiGIfVenGAZwSq/SXsk+1//7nMwyclJDpcRilNkTfzOZPUYTJHKXtqi9FzB6cv5as7lAYpM2sv61fZqPLuM+Iy9r7/J4TJCcYqUVyRpUKpJgy4jEtzTMZjiFCn9Zg3qnLmSWXv5QFxGZA2m7WX91kRQchX2FJmeRQR3nkWU9lTAVVxSUalJvSSXieDvfRcx7TmrqKhs6rIRrHsI4TIifUMXpOB0grOcywilJxWB3CxiRcCCq7rCMoIv7LQ/fZPj1ZyMjExdhUGpV5VbyUDS9lxGZO293ODL7YH86psc3xbBM16vdyQ/9SaHhApEek6G8urs/3039KTnb0lwlcFkF5F+v/4cTCm6PCBpsMqevCcnDZ645y2Yy48gw0gEbKjJGcXlA3EZkeXknFWWcxmR9/t1g8peVWSexeXdMdjQWsk93AGatmn4GSFQTdv7pyeXpedP7F2tGYatxOv4CfJZBM/IJlj51QZdOs6THAPSOgxN0w4NnQYkEIn3lC/LSp9+B90M/rkl+DXijIN2gaCe3D5cRohsUGVQZb8uqzIQlwGvzH6irgW7kvnypjiXEVl75J61YPZsqZvLuXiFh6Vrlsn4YX7cHwX3+9zuYXR9+JW0CDibEElKe0mDCe7cgrWoP9iGvm269XOkzdIz8Y77zLoHTGNvEuAdZlimqWtwahlh4xpHFRmdOncEKC6d4nSFdRlRE5lX26uLtMsIxSmyZhZx1etYh2y3cxDNP+28NE1vDdYwLWirDO1SKlhp2folHBS/B/y2PkWCOz8HQ7Xqu2XquwEup4epbyzxqEgD6tHQzrjT3O+3O+44toy93Z66vh8m8LcJVi5XJR1DRbqMSHLpG7r07DLi1bOI2QTrZtdlgLYnOOVZG3RHhOKAJy1YYxWmLRXMDOL+bEDxGefx/kBhQ2NmpwmvkK7zKNI+VpWMoIqf4qS9qnuyS8epi9h0SCsSfZvbYWG65qXrQc3LPM4Fj4l1r0fa+37py4YmvOnnATnStj00ejT650iqyCgynVuSdBmRvP/qQFxG1EQwrScVXUakDbqMeLk9kJcWrGj2jwcGFygZNsjA7RgF7WHFiZ80Q9FC52erf0CDkmQVDAoza5ipzuhTqbhkI6g9uyPgMwm+4MSduohNP833tzsT3DNpjzscTN+C+4fVMeSLldg23G6IZuI9iC09zrSx07wiERuibgrnSqZbMBlGBVcVwVfbq0rwJ27ougVrJxtc3e9ljGWtGbt9PD/xK8AW50sLtqIL3aFspLMJlnovLIKXWcQG/T9+JbGZ+LXfnt1EJrwknoqttU3N4v1lDsBIdPPU8h1EjsFQP+GmtYDzMSE5QSq9lxvMctkuYjoMEUGt546IpGLaryJlBioO27UFA4YZw3WUlB5NEMYZLScNu7WCYYCP+zqrEO7MazcYN3qcXsOIkxwi3PQYTHmWalk9lxFn7vwcDE33jNtN33QYfDLhOGeTHHZHsXkPajMDhpl3JC78Az+25nCgP8nBGfqZh3wmRHT0pVOky4gkp+1VGXRHgPJaYy8byFogI2SC05FxGfEZe6oFG3qO0YHWP/jLgxZdIQ6qMLjn+N1u5BxygSSslWsGjEzYj8JghQ72j8zQCdkrojhF5oug9OyOglMLNvRz33ZogZB23DZadpf/+WfBqMoSzoozzuDamSMxjr76+fY2D2j34GGCn66foN31rx2DZTll8BwRImlPRroqgpJTpMuINFdjT/kVOfjMr5pFHHqntkkOrBiDjTNGZqxg6C2xEUJDZ+MQq2SsYKyaGJU87mUoxnGaCrguA6VBdwRkwziTp0kOPstquhY3k6nremuoBww1rYLNE+4l4zRzTnHm//AaWtQxOPsefemBzX47PeZr9QJUdAT3yikcQmW/rIjaszsCZIfE5QHZMLJ3gKRBXd6ynMuIrF/i2SwiZ6DbBV1ESuQgnwWhrIBYlrYvFY+PxEwb+p21YExKA1XjSz6lEyK4ZAZ+oggqzy4d50mOBm0Y2m2OprqpXTAOa3EHYReRvegJ7RtyBzeWcbE5+6G/PzpKdLCXpkXF4pxj6TWekI7gx5E2yPKmFF9cYWUEs3HJ2kuHkTboMkJx+UBcBlBPjsEwyLCxhE1y3O9jGXzgurRovvplYZ8IinHezGYR+e4CVp/xKNMiKi7qlpdNiPSa1XMZcfZ7eg42LDbV4w+2MDalD6QPveFlYuagN4zxGdqrZeJo63G/3UCDQ0ahgqF9m2dkio1RT0hG8dUtmMwuGfCL9bKcbnFcRqS5Ks8uAz5jT7dgfAmq71FkZkh7DWroOZxv2e3B0H1AR2jwcb4BfSe4UaY6jFJsRg1l8zDxEVGTgYp8ZREsX5XyA5ztUYG6bh75xKFf/8oRIzE0ZvNsj73GyVquxUZgfDzGvEPKrYL1HXuIxKWCsb2/4gn9SrA1TiEbF2nwywl5fQ6kEywh4pPPwfJNDj/asBawde4dBNsuTj1juPGgj37stiEawQrWYKDSsoL902Hk0qIDtbBz+XUk/b7yivzT3d746WwH0oQ6wjcyUD+G6YYeIkikERVq8nlVv/VwD/AeRLCJQ8OF7uKMISnHqG7SgCx9dpEu/KCvZ0WpSXvNKT7R+nIEnyT466g0d/b+qfgtb2/290VnsFJhYIW2iw70dzDYaDsOOZbHY0HpQS+pxcC//ItohzMdBl/TNHQY8tMHh2t0q+TZiOaFeGER/Kezb3JsXjkSvb/dHqg+7TKit8wzGH+hS4gRatcyUzjjgwrGGsTBqOenVbBpWizTuoX5E2G3LdbW8xKcvgglLuZ5W/OLtBecYQnOd5YnBuPR8yU410XaSy7BuS+8zXOJ6yeW4PQlbWAdg0WOizN82RcCYNvEJzosLihZrfUY+bIvRx22oQtk/UQOzBgnVC6PSLEVFxG/4AxLcL63KINczMC2ppbtF80b0Uy32/gY23Z84O7CriIGZhiAgSiJv6PfaNXJEsF0mzf2kzv0L9Hu+cP63SgX07pAcIjMFVWcCsRlRDbgrL10BEtf4IisX8kJMutXkZ+5ImoMhuaKs+18L+hRHChPGNZzbDFxTnrBMAy+BlY2G6ShzhnBJ9ITukPwz3v+avCMz0Twgn/ZXnv8d5UGPUH08zoMtWxqBy1X148j2i+00TMEx2DQ5ru/rF3lgaD5xD0I7f7QTI+J47XrGMxlhOQEqfSyBnk7ukAaFJBhZAN2eYDSS9pLc7+twoJUs4goF3yIyrplj7hGVDD/zVOZOBymciMPD3cGTjJSB82eeVlnzVTAahZR6UlO+c3aSwRy+ncV9oXNYdOkQNujuzf1LbqMnvzWHvd17E0j7ayGhgZ8Cz98isb99SonYkOkK4TkBHmNCSADdkdAlstH0GVAPsHSszt2aHvSoMuIGr/Ak+dgB7z8CtckWIeRVXQZceIu7yKuyNpTZDZx6ZzJcjoyinQZkeXS90ull+VcHiADcRmRTrDSq+TUmxwXvJqruSJKMZvgjN+n30WUUAZdRmh7UtNlwLc8B8tyMoIVfrW9bCAuI7L2pKLLCMl94orkWjB3RFRxSUWlJvVeWASft2CKc3lA0m8+ghWetb2sossIbdAdETVhVNiTZNWQxGXEZzJQv8lxxG/rUyhSxiVpL3Plnv3DZR2nyKzvuuwXpLgdlWnNM1S4yl7Sbz4MRbqMkHoVXD6C7oh4wl1bMKEoG4hkwDWcTJzLCH1F0p7dUXCaRdzxai4TGcOrA/mWFiytV8FlI/j6CqtuUU/8/tEtmOIUmY/flT0zpYvoBxE1nLzHZ31/yxhMBlyhl/Wr7SnSZUSaSyq+2h6RacFqMkuS6QRnuaoieCR/8yyiy4hsZGTAglTltyqC2S6iVFN6aXu5QKoSrA26I0DaA3luwdIRlIouA2RCasZg2UCymXAmP/Vl3zSnSKWpU6JIlxFZTt2Osp5fmdUGaS9pUHLSoDsiknqSS3YRGUZmFjH9JFyn2GVAOiEuD5B+k54Tep+bRUxy6WkAnTp3BGS5mtzK2tORcRlRpScVXUZIv4p0GaE4bdAdEU/CyDwHe/kVSY/BXq3nMuLcFFd3ESWnyKzvmg6w7mgkuWwg6duH5K5kurwJ8uUJlmpJv+Re2oJJTpCvTpwuglmDLh3PJjnklcty+SuS9Kz85iOTNCg5adAdAS8Pw+UBSYN1CXYZke0ikvvqLKKyl47gt4zBXEZk9J6+ySENuoxQfuU9PmvxlbcPgyoeMuBsGEk97dllgK4QFYEov9+hR7x2FjGpqPTygbgMqOlEnQN+2kVMJ8RlRE3iqgLRXNagywjFZbuI+Qi6I6LK3pXMhpEPxGUE9f7t52AyIekxmMsIySl7Se5s8GkXMeHXIDlFZn3X3T5cRih76chUcPkwFOkyIs1VeJZqn7giXx6DZSMj9ZRiUk9yLyyC9S2Y4PQ9nv2y0yI4SSpKLMEZlrS94PQlOMNyUaTedvDZJRvB4PxgYfaHw7IE57oE574E57pkOSz/9L/YggUqbTAerEtwrktwbksywcG5Lk+4dASvy0EPWMdglyU4wxKcZQnOsJx8E5Bc7dS2X9m4Fv66beK8j9sm4h6A47T67rw/rWV33PgVBbjiSpworNytB4G0fdwOzrBfyXVzFKftnQ3MShVHoLC7rudjdT2wuv+47SKuDbuIvVlZNz9x2O85eD63UmE7OneX2uJ6Psa6OwNV2HVbqcit2+qM+/MxdytvW3t/m8xdTsS17MJm3Jm8Eit5SAZrGNcjyO/wmija56NegaAkaYEX7A7leeWiutSLpLuj6uqgjO4oI2SCXR4gSGlP5tbG7ScF5c5AwC3tuQwuXvDyVamA9+MSULjDGRwcNXmk9E4G7WiltlN0XEgguv0oXwSv5Jnr1lnESNN99XrxaxCkJ/jMC8/SoNJTSNp7kjVXyICV36ReltMVwmWE5KRBdwRU+U0OSUhlxmAvT7Cc5EhyOoLuiPgiV76LmPScDiOt6DJCZb8yKDlh8dWXM29P6VVw2UjXJdhlxGcimJlFzD84cRkhubSiywBt78pqPXdEnLhn7yLWxFl7zvquC9llgC5vWc8uI2rs5SPoMiLNyUDcEZHkPuM39xxMBeIyIqkn7UlFlxEyjLSiy4gT942ziC4jpMGKIUk+EJcB2UxIp06qKb2svbSeIl1GSE4adEfAszByz8HcEVHFCTLrV5HZIii5E/kn/qLZHRGC1J0KoacNuozI2XsSQZcR6TCuZL7HJA26IyKpp8PIKta0YNkwBJkdgz2L9Bl5vx8rogXL/6L59RF0GaHLm4AgpV5ySigfSDLgGj2t6DJChaEysCoMFYjLCOp9fQwmIANxGfGZCJ6huSv51TDWL/uekfFrUJzsRGVNpkNJ20t6zurV3S+vpL6hu4yo0atJcHbWmvj6LGKSEwbzV9jlAUovaU9H2qXj2atS6UBkGEm/mkteznQgNS2Y5AT5cntJz98xbZqPDLhLC1Zh7+WRTvtNNrGKO5P1b9O7jJA5qDSzOVMTm6oWrCaCeT1FuoxIczIQd0QoPZcRWb/kLi2YUHz5HUD2KVwekAxEJzgZyEnv6SxiDZedZ5Okyv60X0WK25E0mOR08Uh7dkdA2q8mL8iX36xetk+BLdeCXUnZFKvYCCqfkLTelf2qvZ82i+gyoKpCZCOovObtXcm6spXlXB6Q9Ksjkx2DuSMiywmy6grX+NXckax+DlajJxWzHWBt0GVEtkOdJbMdEpm4JJdOnLSnSJcRkpMG3RHwjPtqC5ZPnDsiKuzpQNJN9pU8M/VvcogwpGft22VAPmSXEdnYZANJhlEV6Xx5q9DTAbsjQuop0uUJmRZMd9plwO6IEFx2SPLqjNHckfxUCyYj4zKiMoJXVhmUnMsD5OV0GZHmkoo19rKJk/dQ4Tkb53wEXUZQL/cmx5VVejURlAlWnmXikhHMhPH0OZjwLCOtOHlHyafOHRFp7krq+28Nl6yxyq8idQRdRtToZXNQhpHsMdHe7xiDpQ1KewJVETxxw7M3ObIGld+0PWlQXU6XB2QD+Y4WTOkpMmsvHxmXAVUVVht0R8STMM4tmISyl4WMS4XBV9s742+ZRXQZkbanSJcR2YDlJEfSb10EXUZIv1nO5QFJv88iiAo2tW33Htqux1aBk+cP7PW9Oz6FqggGtP3TB801nGw0OF44LZoLB+sSnOuiOLE8CSQebEtw+iIU0yHLcIPbF20vOD9YgtMXeI6Hz5fgXBdpb4hHZZF+4Xl5e7uPj8foC7G616UgMlyujOK4nmhHpLiszP2+n7tqPeMu9JXhcuWOenDf38oY7KtLcIYlOG1ZKxjXuAVm36OFOFDrEXdhK6ttvl93Zd224XgYtjN1IRh5c5Sd71HeDgR223rerod0HfdMsJ+I2ybCHjvKuJ0JZqA7Vsq245FvqzPuz8cFJ/YQ49WFpbvf7jeuBh6s7hWrwonfmOs+wLRst6t4IOVwhVErt549qhiK3hFkVi8ODyOgHF32x6gU97Ln0OpaDwOz8Yo7kbzC5gh7y/4zrkypiO7cQP9nKG4LJJ4Tiq52PIGjs6aK8ztdxOMJmWDpF+SJl3q+HSC8rp4P/MUj8CSQC6sj7Y4AcsMyGSDctbq3dcOVLI7TPq5HnAihuEwP9Fnd6fu4FkgSODPbsVGFv+4JuMoK9K3KLVm0ZJFRnPBLzStUIC+elLDye4b0Kz27IyBrLx9Bd0RUcUnFrN9PXRHrMQz7MgT3urTc74dYgt6+u/rlzqRvxtBeORWXojc0469HW1wki9gW7vajbRnMx35c9PbDbdlC2cRFD+uTXHUZkeZqFLORUaS8LdRUWIXX59ZrDSp7KghpTxt0R0DankJaMQmZOsf867GfTcb6PXtfQf4K5/SkvScWXQZ8TwuW9uyOgBq/iswnOBlITQSl14owJPfiK/xuZOb/2yvYK+wdkOTSRVDaS/qt8lwVSPJy5u1VeJZqSXvKr05I0nOaq8hBae/lEXzHHrqI+9mkQWkv6ffTEYyosZf2/ersl/bqDLojQHnN20sarNKTii4jXuxXes62YNnIvMehi7gFlw7jxU2susJ6kiNpUN3js5HRueUyIj27InIrmxAdGcW5jEj7lZ5dRii/gqy7Qym/FZyMdDKCVfZWxdiCSTVp0B0BNX6/p0+sNGUMZWyUossDruS72R+RDaPu9uEyoK5CuIyQ9rKcy4hX39Crypsi30tIbMGkX5cR39GC1V0lwcnI6Ni4IyBrTwYscisdwWwgr460tpcL5HsqrMuItF9BKr10IHJU7PLQgiUN6ki7IyLNKYMuI7KcvMdnfefLR05P2stHxh0BNfFTZF2FSNrLJi6vpxRdRigu20BkI/Me96eOwT7h2R0B2l6FZ23QZYTikrmVDuO9++UBST2ZYJcHSM8uI0QE8xkoSFXe0n5dRmTvKNlIv1t+P5pFlHFRnMuIrN9sJ0r6zQYsFWWKa24fgtSXM2vwxX61vWQg6TDSii4DsvbyYVxJnTZJCii9d/y+bgyW9ewyoKoFU1y6iyjt1egpxYoKqzMmqVjDZSNTN4tYoZeP4BX5CLoMkHGRfQrnPppFrEuIOyIUl2zB0oFIz+mUZC2qQJL29P0yaVDePiq4dHmTnl1G1GSgDKOmT6G4rL2swfcSdxiDZf1WJfhKyiv82YREZO1VBaJDdhnx4tyqyoWqMKRnlwE1DURVZPL2cp6VmgzknVFxgwq2n00arEqwywNqPCsu3UVU3G+7fcjIuIzIZn9VBCvs1XEuI5RePjIuI+QVTgaSTcjq96MxmAwjXQSV5yunr/CLuZoI5jmXB4jcytqTBrNdxKy9dEKSBusqrMsIVd7y9q7sqyP4bvn98E0OlxGvzkBZBF0ekA6kxvere/wy+/Oe3RGQtZfXq/HsMiLrN8vVxE9yVQ2Ey4j39L40BvtsIBHSXjoQlxGC0/d43sw+Xiw2qSU431m0PfLnRXDBGRZt8LwEZ1iC0xdt74n36xKc6wIuHpYlONclOPclONdFRTA4t0WqybikkxecZXkSQSoeVg94HYNRreyPy8rtK4F7/KqwLk8SEg/WJTix2CoUy3pagnNfgtMXYZCxhuRqJ7e9c3HjJy/Kum4UZRf2zn+8DcUR976VNbie7OnwjWL7JsdpozjuL5S5Vse64X5ksuy43xyn/ZXD5mLdW4L94EBv0ve+BacflnXfSgYeKGyb2PaWCh75tjovZEE52NYLgVWwFwKhMsFwHfe+m3/d0YKFM7ausmBzrgRdhdzWsgtbWYkitv1p5Y5X2NxxuzK+fUytCfaNa6muXM3p+40LG/0I2ra4p93VuW2SK2Q5dBK7bQ3Cd/t+W9cNa2mfA+e8bXHv9IFyPm6WSXAWYj8lScGdaEuwH+y0p/hA7cS+7TmzbRbBE+Undif3ZzUT3J1IHwSUg9URj3y/uaLjkleMczlVjn1fAv6HnwzYjB/8Ome7Qm/SWjDKclQcG+MbV+PKmW1PGRnjVjJsZT1uhTtQl0OjuIXD/egMwXmsj6jgSvE4Qyq6IyKpVxPpugRfSZlg5VdGxmVEXQRdBqQj+Aq9L80iJvWykUkXwWxkXh3Bf8Ggy4gae0oxb+/K/rYEK1Lay3IuD6iJoOLUmH+lvjaLeGVVnPMRdBmQtqcgPWdj4x2II7KxUZy0l41MlnN5QDKM/KSaywjB6QYiyUmDVRG8klX2ZATf4b6/BXMZUNdkC07PIrqMyBrM2qtLncsDBPne/TIinTjp2WVAVk8H4jLid9l7ucH3ytuhBRN6khN3ABmE8uvygBffQmXAad+vru519lxGKL1s4hRXdQfIJjgfGXcE5O0pzy4DdAuWDCQbwZU6PAdzeUDSXjZxSk9f4aS9fARdRkjuWwy6jKiyVxNG0l6dQZcRilOkvKFnw8iSipJ+XUbIPoVzLxuDuTwga7CqBROkbLKzFut6/C4D8rePJJftItZF0GXAOsl8QNpelnMZofS0ossIFUbNFZYGFefyjx2DZQOWXpP2tMFsIC4jZBl8cYVNpy6duKS9qgh+i70Kg/m7hzsi3rnlHd6mlwlRnCgyab+CU0VQ6qU5RWZ9p3voknMZoNt7oZiOYJLL21OkywjJXcn0/TIdwReXj3wLljX4jt7rxmAuI5Jc1RVRfusiqAy6jFBcjcF0pN+bs4rI2vuOHNT2BFkTmWwYOhCXEVnud43BshlT1YlSZN0Y7MXZ/y23D2VOh3El8wnO6aUTnFST4VZFMN1HcRkh9d7x+9EYLGuvJoL6Cmc5lxFKry63Krhv6QB/h97rI+gyQnLJHJR+s6TUcxmhuJoxmDIoE+wyIsu9fBZRJiRrMd9Ddxmh7KWz9cV6VRGUnMsIoVd1v/yWBKevcNbgO9y/OwbLeVZXRM/qKM5lRHaUko+0ywNebTDr970ef0TWnuKU5+xE28sTXJU4lwcIxX9rFvHjMZjyqyKo9FxGKO57JrKVpoy1jI1SdBmgLlP6hq4NXpGMyxPPLgN0BF1GSLUrKe3lDV5R16e4kll7stJJxXf0PhqDfdbeAfLKXbm6K5LkpL20QZcR6UCylzNrryaCaT2p6DIiafDV9jTnMkJxVZ4V9+4YLP4B33O9A9QdQOq5PECRyp6KS9ag7CJmo5i+XyooezLa2cgkuay9dASrwkgqvlovy726RXyXO0xyuDwgaS8fQZcBr+9TPCHPq+8OC7h46Mu6o8QFMrT8KfuqsC7BuS7Rc1zPS3Ael/N6/WLD8zifl2Bm0zhzWNUiT51WozbHgS3io0XpyQTHg3Xx4A4rttVty6p3XiR3WfXy7AxDQwuG+rwRl8UNx5V3ABNxOSthvRByLZ63w7ieTWxkXLYT20rOxLaU+sUvCcR13x1X/2/2uOx6QNvP4+Nxf4zj1A9GRcXdXZZ1d1gN5tyXlTmsijTl02p6V+5MYRUH2qDJuBhO7M7ZgbvszGm9EFiNPC5Sz9bjohUvx4bVbf7oWh2rMTvmFglSK+tr2UWVfTmvqxx/PdqdK4647Kyvq4KLdQkaZfXdgbsyZReZsvqZ03ohsHJ3ojxGh2PWsNO67+LqCNVzY+ygm8b77e3t169fb2+3x7jA9K599MfFYTr7unNR07e4Xhmsgr0QWJ+w1wNPwmF1GRfDgXUYZ4cuArUxFw6rkcflE3rcn9bLsWF1r/6IjVgXrtuBEQXljJ8v8rwUbFplxWbnbJJj5WxXTqyLoZwuq+8o4sLVhR+U3YEzxmU4dBHXwhwoPz4Qtq7B7ysq1ZliK32F5BS5ounmG+vVPE8z2rG3t/vU+ilD1mA6Mi4j3o3gFyDt1YSRjWA2jFcnOD1rraD03svBD8dgAlVXROix1lyQDkMadMcBSYvvpa5Z7rfbY+pKi4i+4uP29ujKOYO0p0iXEYrLRvDVXDqCipPlN+n51QnJcnUJVoG4jM/B0gkWOSjUPpEQFYjLiBp7ad/vzDE1PerXhC61HQFNN6LChRqmwlD20pFxGZHNrXQYVdl/JevsuYx454ockeTyEZSe3RHwHvfRczBBSXvZxMkwagxmE5yP4HOD/f3t0R+v9jDd38a9hqUNuozIcup+qRTTYWT9vtygywOU3xfbS3cR09w7ih+9yaFImWDlWekp8tUJlkUw6/vp/bJpH6hf5XhHs9ze5s1LtixkkfarFJOcvqErzmVE1p5WdEdEhV5VBP8te196k+PFFSJ/hdMG3REhuc94bua3+3I9Ocy320ZDNsPQtkM7wEGBA/YptzrPzMMZnrLdbnCI94XVvcaGj92gzMdv5u10DzkeFWQT9zTBZ2S5U9wMVWEoe9/A1UXQxYdvcmQ5lxH5SGcNuozI2kv7fnr7QAM2qnORh143Pu6P+30a2vkOB5yPpRkmr4NNPw3oV5K9P7CfyyQkTjbL3G/RaedyAupFLvQwLgsfwNHp/lZkc1AmOOlZdj60QXcEyEuS9StyXZnLx0+RLg+Qnt2x490GIrZgKgzJZSOY5F6dYMnlI/jEIPqCt0sHkUDL9ujcE0T/GPulX9BsQcysFHC341QU/hmWqevGeemBpZ9mjN/aaR7ncby/3ccZcu6aYX67gZqn5UE5jn23TOPct/PY9+MIf9MaokNEuia3lLm8vaTBmkDSkXF5wLNb6AnZcN9V/GgWMRuwTtyVlHF5dYJVH0VrqlCexGYYb+Ox2VjRPW6TG4LoWWdWDPNisp1XDTRKXTdRhcTQo86iyvDdkHma5scDtaprF9S0+3183O4mZ5ocFoQ+zX0/j0t3rmCHgxWKFNy7N+CIpD3ttyaMpN+sZ5Vg2Twre4p8r0/84Syi4pIVIsulr3DeoDsiJJf0TCpUoxNY9UqW8HwfJhVRsRaz146lonEQ1fzT8R2rbl6Gpl2gjOZuYJXB+Kq3t6/6cW7Zyk23e9+h+bILSNVmYvfwhk7iqa5/JiFnKL2aXK1qwaTf7A3YZUQ2jLxnlxEy0s69bBbRZYTmXm7wCpmDWd/PLmd7v5VKcgH6iOsgDCF3Y+hIomJZeVtbsGFmM9hO/TLeb+g+dtaCTThCzSEgxo5jNLoetxsl9GC+VLCpRYeyG/rlqy3YlXx9hUh7dhmQDaMmMvkEv8DeYQwmA3EZoIugUnwn4AAdwQpOdhHTnAoEW/9kCIaz05aJUOxj44JmivYatmQ8btAgdQ1asLZbRvQFB2vBpr7HCIu1bcKwCy3Zgn3XoS9J9IvNeAw9u4io4z1MoZ95jObxyCCofILTnl0GqMuZtqcNuiMga0+GIcpvTYLfi+DhmxzK8yftHZDlvufBn9KUKXkSm+729qSC/TO93b1SUQ9VZen9ebR1EUHuY7AW4y+wqDbj3GOPCtaxxizjwsGZTRoOCyogTqJy9axJHdssm+SYYHt8LMtXJzl0JijSZUB6mCKzX/nN6r24QmQTLDlFvndD/3AWUZD5CErP7tgh7WmDLiNyYWi/Wc/k+ncqWGjBmt6m0Us/sdm6iD4GQ21iBZum0TqEj2lhFxE9wGZxgqEPaMrKIXDvh25pafU2LjbzT8SBHiDi/DQhZyhOG3QZIe0p0mVEmksqfkeCtd93FA9jMOnZZcB79iKUOUkm71A6foKUd5R0ForYEN3zMdj0FrqI3bjsD5C3SY6tBUMFa9CK8VkxHxqXSQ749ofPJTnNMGEkhsN26K0N5JvF0zIMHIPNagx2OHIkuboKIQ26IyAbwRq/WU4lOD03IPTezcCPWjAZriqCynOSkxFMe3YZkbenDD7hnk9yDPP2shT04iyibsHaBdUEw625x2jLxmDdwjl6LOgCWmcTDVo5nMb17RGbpme95RjsEsvTISGo6ky4QOop0mWE4qRBUd7yYQj2xeX3vch8PAbLci4jsn4VqfVcRiTtAUnfz24fw3g7vT6xosWZvYJ1l2l6kGEMNk/9gho1jvMDg6q+R2WauunOH5mBertb04QKNs4F6w/OWlQwtGN80DxhZHZspQ8HKxQpuKoKIbmk4qv1slxdggWpekyrXmzBZGRcRugimPXsMkAmWCu6IyCbYFM8rbbtjgLolbPbWnbDdLsfBz6Oho+rqFE8Hlowm0UEj4rmVDc+MMJqF+vn9T733qBZ6pCrfDhWAkRf0N87XF87bKd+aDmdf79he7jeuhWdA55wYLfVuUit64XgdmJsvRIl4BNJ6gRyl427E6sjeFEzv6e12NsPDXsEtw07iPN6Pi6KZwbCyW3bndu7iHa8u3x7ysERV+OOFNfzsamU/b5hLxSVPds2hx1szriuAdu2gReKQR33AB3bgQFHcXV097f5YNExjG+Ptuhx14/97qsdJ/t5NWXhurnrlmXoOH0xooL1nLSHlRZky6fNUMMtbCmPxUYsj5lvC8PEDfoAupaseGaNNs3uGmCAoAiz72tBCdKPbb8543plsK70aQ+U89v6BDwTt323M5ZUcx72RYZtF9taduEwwM8EvijF1bbjHijnykpsEVw3B8uctWDmjruN0Zw54lqY4NpOnCjfx82xn7S9OYrc1gI61s1RTm+rJZiSWwFKMHelfux7aJijuAtY3layrNxBDOrXKjg33d7Y/6Mig+zv7OzZs2E+9poYetM+bnzfcGqboW36uWsWvo6IIzRciw27mpkv/67t3DCNC/qBfGGxH2e0cuxSLmXu38ZgBRamOcr+sG7cthlri6+F85wpx7Y3Fee2FduJKavvtr1nty3bWqjLdqZKpA/MZs/c6z4Y9w3LRm2rc6t2wW5w3XbnYS3CT/reuNWe86viaTNRviplbjMYFQjJqSLIvbn2vYoguMLagdHg/Djsg9q2PtsOCTbOjrfN98V5hOAsJWcYx99bXjqJqFDxF5dWN4gydBr6zlI3oIKMI9oiU1iGpsNQa+j40u4wcSTW9wtq5WR1Cn1CVCh7zIxK1vFNRHt7Cs2cVbgHxmAYhNH+hmTiZIKPlgoq7MkcfJ6rJyi/r45glT1Bvpe4jyY5FFeTWdqeIl1GZAOui6DI/qKHtuqG7pq5VzTdAyMwP3hi8ER2bIjI8dnWxInEDkOrmUOt8hANA7pm4ctS9ouWB04Vj/8Msz1jszPHB2EyXJcRkksqlrvWCYqquZw1esn4yQhmM0FycpLD5UfvIkpOFcF3wjhAkVV3FJcRcpJDacpYPw9lQA1j8d8xLI/wc0vt+Zw66pgaf5HpQy6OqZxqrQrbzzYL9h9X2lky3K1kwfGoIMnlK4TLCOk36fnV9tIG0+VNkGk95w7Pwd7Ri1BcTQT1FU4GUhXBbGxWaphvb+iglcLdNF2P48OvnJP2ZGQUl0U2F2q4bKTrEiwNuiMgzbmMqLujuAx4z97xF80uD1B+VQvmMkJyWTJt0GWEDCTrW8fQ5TDxW4jjsvA1wmnkNxJj/ZJhyNxKBqzsZfW0Z5cBry5vOoJJTkYw3eK4jFBc+oq4jPhsQj56DibDTerl7V3JdBFUerKLKDkVyLu3jwbjpRvwxt3tdvnu6NXg99zQXUZILm3vSio9HT9p8Io0V2NP+X11BNNjMKWnOFUEk351BF1GZP1KTpFZ3x/FeuiWB+oYahhasvYUdek3GbCMjMuI/O3DZYQKQ147lxGSkwbdEZHkXm1PcunyJsi0nnOHMZjLA97xe0Cau5LyCmcDznKfiOCVPVJDa78jOb+uRAiDH9tzSE4adEdAmnMZkdXTnl0GVCVYGqy4octwayKowngn4A/HYJLLJlj4VvZknzgdGZcR8h6f9Z0OWUHpqftlNmAZl6Se9uwyQJePK6cvZ84vNS94tZ7mBKmuiPKbjcx7EfxoDPZZewdI7krKK5w36DIgb095VtXd5UeQ9iTpMiLNJRWzfrP2sty3JDjNuYzIRlCpSYM1YzAZcLIIKk5H0GWECjcbiFTMRlGHohRdRqT9pj27DJCXsyKMqgqhDbojIB8ZdwSo8paOoDIoy68K2OUBSu8d7nWziElFqZYOxGWA0stPA0iDV1L51QZdBrz8fplXdBmgE+yOgDpOkS4jlF460i4j0lyFwc8m+PB7MKGmDVa0YMqevqMIVAWS9S09Z/0qMnu/lAaznMsD0mEkDaa5pKJSk3pJe+mcEVckbe+zETzMIr7A3gFpe8lAvieCqkJUBPLy8vtejz8iHa4kXUYkOZXgujCyV8RlhNR7dQSzYzDlWUbwxUUwf0dxGaECkV3EdOpkKC4j0lxS8dV62chk7wDpGcOahNTYS3OqvMkIuoz4bKRfNwZzGSG5KymvcDoyLiPS9qRBFUOXB0i/7gh4/Q1dBuKOgFfbyxrMVljJaYPuCEhzwmD2imQnPt5L8HEMlrP3iTHYlVV6cpSi4qIDuUIqPoniBToUpegyQnHZ+2U2MtkuYj6MpME0JwNxR0SSy5a3dATVFcn6VeR7iTuMwVxG5DNLKbqMkPaSitqzOwL0LCLI83o+5mqX88JGV4HwfCGw7qmzg7IZRRlXbJRqiysVz5TtLht2l9X97jtsTxSv64XgdmJAXFJXDssubBe9sp6PVfy03/PxrmdH287IwOn1QtiKXTy041LeDtQav3UMxm07ve8uRNmJlGC9HtvutJ6PoWIRPK/Yztz5GGvZRcaO1+j7sYHxxsrIr3s6rqyLuDq17Qm6ytltNSjOwAPfjF9l3HMXNwIyrvwgwpky0BE3osi4L2LdmfRvchRm3RcuroYrd97jDuXObV1RTl+2uBJFxL3guMN2Wm077M/Ockysh5ThVNybvNLXPQHXthaaZc5aMD826rCL+8AScMXVqeOeO2yn1bbjHjiR5jhxLuJacCbtCptr26+1rtQ03+9LYE175cuyCtcK1HEJznUBV0K/LKsIe3OtjstBWcBZSuKy6rnYDoqMez9l23rgCV5VfDsuXIs4LmW3ipU5KW7rib9m9LqcLPITFdtR2Uu/xl31zB123kfxw6JWdhu/kWWJtGCukWG4RaIFQ3Dmtn2R+247jqz72Jf12B2+l5lgy1nPFA9kOXHkbHdcnnCbj7JfnVcIzjyfUcGVCnZCVRhVnl0GWHk7o8aeTHCVQXdEVNlTpMuINPeOvTjJoSPjjoDfl+AKvXwEs4G4PECRLy6/6UmOl+eqYpViOoIuIySXtJc1WFc8XEa8l+DDu4guD1B+RZGpi7QKxGVEllMJTvt+9f0tfUPPZmHanssDpN8Kg6+OjI6gOyIqOJVgffeo4FZ7h1nEd/QisnpZ7luucJXn1wfiMiLtN+3ZZcCr7Unu1U129oaeTty39Cmc+/BNDpcR+g5wxbckWEY6qyg9V2X/lZS3j3RkXEbIbHV5QDaMrME0JwNxR0ANVxPB70mwy9c9B3MZkeTSRTCbMbKLmOaqPLuMSN5/s/Z08chyLiNq9PIRdBmhOG3QHQFZe9KvUqzBewbjL5p1iq+Q9rKRln6vZDqMpD0g6ftb728R2STr1CUhPOdrrMuIrN98brkM+J5pTpcfIRvuisMsYhZVkbmSMsHZlNRd4aznGrzaXg3SmeDyAOnZZcD33KGSnI4gP0K+LNNxue6K4+NF6a3c4+3uLrd7Xiyg08rdeQnO41LE0vnXOi2JJ7x6DFY3i8jYNEPbxaUL7nUJzn0JznUBFw+fL0ovONdFRya41wXcJX0qwdkKIT27jKipEFlOB+wyQnJDP95vb782mPO62w/Cvrgi3gK/ni0cHW9wrOc2546VPK7YnVDOnGBM2d3uY/lvEJFb+T6K4lxG1F0RksNYvnv4d+N++a+KqpyWueUyoKoF0wbdESDtJf3yHxOZO/yfNaK4bH/cbXTc0xHhilHPRNHbDley0CtW7roc8Zzl3lyA/cmjSnBVH1uQMlfTl46xGe6884StIDLPNiIcb+sBTsWNWOUKHG+U623rlTiB1OVPb2UmKNJlhOSkQXcEyEui9FxGvHwM1t9/3Sf7r7Ufg66bkSj+O6pK8KuvSHoWUccGu/b2Ni5/O+bbpYLJjMnmVpL7bRU2aw8N2OEPBX4G+M8ks3xens4tpZbO1SeaLgPsftnef11u/n8dhts1ESJrshVCXzylWKEnvSbtZQ0Oj+1P638Shvnt0cpMkFdY56DLCMHVXRFyqGBTOfyLgWb4qy1YNge13yuZtacDEbUha09x3f3adf4BaOa3O3JKpVhlYDoHBVn5LiJ2P6IFa1UL5jKgrkvnMiJ/7VxGCE7GL23vSoobz4/A9OvOFsyPAtItmMxplxH53HcZYbH5ES1Yd3s7/6e0zMFkzuT1FOkyIs0lFbPhdm+XfPkRQAX7N1owlxHSc9a3eR5+RhfxG1owadAdAVWcKB/5CLoM+Kkt2PJ20y2YzNVsbim/T2cRLxt3Jxj3I67BkzHYuq2wBJ+2z14R92b7f6cFO23Pwrhs2J3Wn92CyYxhhTittm0O34w74aRSNu7OwHUvFz9sZXcCv3nxQyY52IJ5qnZsiS9g9u+kb+H86SDCT7h+EbgAdjkLV3aUBTztMKefJVb1crIchPN07hv24VzAUW3bDmsnWvafgOWXtWBPcMgC58wRtyuMPahgV77JEYHgccIuadm5XN37anZk7+qvA8ZgrGBwrRt2h0wwhyU4kIVzJ1z2f+vOr7ATfBMLjoGPN+300NnXM5qWZ+ygs9d3cNBPM7AMQz/P04SDqR+Gjn8o72tbrEAT54q7hQUDj0zNdiYRwfXAV+zshB+7LFRc5Nj0R8AmOSyJ57VczrgcdvvBerit67LunFuPnAu7EwTHyPy3xmAfDHG6/W9yUYVQebwH3k72tHZYHovVQWguZqrpJxzT27D4P8a34/0xPh5zC+3H/X57PB7TMMz746hmmfk6Qtv183ifrYIN0zg9facyezUVV248Pw/Lp2YRZWYlczCrpzledAxffuZzsE/lFi4M0I+Tdwn+6Wa+AjeWCjdMaIDAocLcWVOguXQ0NljN6622DZNVotZtmM12nlu6YwXrp6U343aKoQ+TvWX3wHJ7XFoci98JilMkuoj/sVlEy9ATsjmYtZf2Xa7u/2YR0b+b0eqg3bmhwWHz04GZum4ayyvEVsHQavXtMqJGdWh67mykmnahQs+z0LI6NIwhJs00l1Ol8hHNgkaPbdW4Uu38uI+9NV/znW8onCDinOV+7CxiGYP5UYC+wopzGaH0ns4inqEDBvkjroF6DuYy4lnuN8tjnCeOmDhomsZH33QTin879b1ROL2gHkzLPM49+n7ziHWE1vjAadtNC392hboz25veBahYdoCWbK1g7ewxRe/SZAuv/cIRHDqcMGBkwLNIn6G4/z0HI5RemlNk1rd5/kGziEfIBCsSa3toNzjZYcW/nRfUHoAdun5iHw4NXN8tTde3bNbQ8vHkSDy49vTjZoC15dpbMAy3Snv3D1oykx2HYaS76bFVwwARZU0K7oe3YNcUyyusi4I7Iir0NMfL+UNelaoag+GybGfscED7gkFWj74iB1SoNBDtMvUTqkGPLmHXD+2ymMdmWdrBATM+BivG1hYMY7DCNN3Df7mGrmKpTfTEIFBPe1q4RPJ8DAhKcv8bgwGCyueg9Jz1bZ7/14JZ+8GhF8ZflFimAZ0/Hrct25thYTFFR9JU+r60YMti5prpPqK/iHVi1eE4ChbKj0QuLRiGb3sX0ajGwh4njsF6GwqWCcoNunwIUnD/m0U0JDnlt3IMht2PaMFEQXqa4BPIDUsZf433B4di87QMrAnTOLZosBrUD+wajL1Q/Oex60ecmWf09egZ3cTZBnAPDN2Qnxie4ag831pbrnUMhp4nFuwZGPQw/OoW9EMxfrPKyY9UzN6F3HA6JAQluR/9HEym+HhzMqirns5B6Tnr27qIP2QW8XqnVgmWNWwXg7VBBh+Ddf90qCsDahzO9n3bt83S2wMum2uEvabvuzKYKn2+d8dgzdC2U88Gs5h43MeOQz40lI+JHypZHzhHiDhnuR/xFoEAxmDr32QckW7BXq2nOZI/4hqIscbTBJ9RuJbTeCj8doSdVbBublmBBm/B+qVDZcIwbGnhLK9JwWM72Esc/jS69d6hYR2DxVlE2OIbODjVlsFah4bzwSdhNomyVfEVKtJZ7ge3YMhPkWCdMy4jspzsIipNfUlA/tznYNcUy/tboXrUJfTo+BhsfKApspc62ILRU3mePCyoABhgsWqhprGxQe9xQWewQwePEyE0NJwqWCHXMZhVsOLwMRhOYvS1zHMPm/00lr5lhIhzlvupLdj07G16fYVfzMnc17HBDr2rH9lFlBnzLBNQtUYU9xYDLwCdODQrGCHNhzc5hsnHYGBQpQpX3pnqMHiyZow2Qky2Mdg02zGC2yrYOotoYFtJtEuRATIhLiNU4v57LVjI0w3pHHQZIStY1vdPGoOJFsxlwNMWrOkfD1SQMAYr/TbvsKGCIatQpdgftOmIbllmKDc9KwQHVnwAbbrtOGIw1bZ2tL4ihaYRncuOJHqSZA4VDNXUD+zdxhNEnPWtwmXAj32bvrRg1xSrK6zGajK3FPeCWcSfMJMr7tRPE3wCqaYbp2WchtZn8HCZuqkbBhuI4cCGV3ze1WLoxXoFDxg09VDggGq53zEqG+fysq+9Z3gvXb11DDaAZPcS5tmCwRh8re8iNqiGDJcN4rJ1JTc8i/QZivtfC0aoDJQ5mFXM5v/6oPk/34J1fJDcTaPN7HEQNrf2YmGD+9fQj+PjgeoyLKhMPc72y2NcMG6a5mVeugVtF3+q0nAANaLytDaY8unAodwB+fIhSdRXVlZaKWHx+dcMK9BGKwji9BCMEHHW3JX8EXdPgc+9i5jNQalWYa94/q+/yUGu/JbLnobN9msuf4uJaPj7Lp4fSgeP/cSZkx//oNKgXqKSrXXCeYE9XP6SzEza8zb+bqxdyqwIgp/T9UslxGXEy99FxO2j3/PmHQx9f52ueRm+702O9Cyi4v7XghEyBwWSmZq2J1ETiOBe3oI109stzJI+R3d/83mbfwP1LZgsCUnO7F027k4w7qe9yXFItG8rSiaczkSF96D0ZK66jJCXSeDpVTqB1GXDLq7E61uw6XZ7Ulw8SJesYNfW+FWwFkxn1pV0ivt1W/dHSE6QCIRPMONmGE6L7ZATP6QF8zTuCd7cntjNuW1+qPH8zI73dXDW1oylAPezLoU6LqZ02ARAhxvPa9AsqGCyIK5d5Zazq6hgj9u/2IKhHeVUE9MYl5JowRZ+3TaXnd135cxpKSLsbIYqCaizgv39LZh1hTxR76C8rP5CvNzeaw3+07/6bXq2YNJiO77ZhGnTv92tgt1v/24LZlOwV7z6igh4HE542vz9t8Zg7oio4pKKSk3qJe1ludePwUoLxncqWX0o+XCiafrHja+4NO10u0/DsLdgTWuzQ6/F07fpZQ4mM0uS+ookLZreTxuDrajJmCwnb2dVYdTYE+S/Mgbr+as2VCfUM/tKycQn9PzTLnC9/R/ZYxo6/9sJeyzoL8S8Dk9nEb/likhFGRvLgf/NIl6AouOuAEHpCiEVXUa82K/i/pUWrG+G8e2GaoVmi/85yRZrfHu73f7v1i93OH6hbrVowVC8uvnGP6X0b5u8DP/SczDBpafpnxaFH9GCVT4HuyDJ5e+X0rM7Aqo4lxH/TguG9or/Otb099u4LNP93g/dfL/xKXm3PG73ceqaMgZrR7RmyzK+ejz2qedg2auZtpf3/L8WDEjnljTojoCqMEQ5VHrZCP47Y7D+wW7hP8P8dl+GAZWoVCWrRHxvjHXauoisgjPGYJP4Gl0Vno/BRAamr5IyKPV09rsMMM8/ZQx2voI1uZrPQEW6jEhzScWsvX+lBRt9/qJFR5FvWIKxClb+N3kpb0hzkmNo7IOPVLFK9zpwFlFnzLdcER2yOwKM+18L5jKiRi+b+zV6OoJXTuVLFVhlHvc3m7Vo59sbx2Bv/LtJ3YJxSAaNX2jqVCq+DG/BcpkgR9TZ3JdjMMVpgyC/2oLxrTTVHjua7X3X74Aag7mMSF4R6VldJlVhpT2d++4ISHMuIxT38rfp2YJNs80csgW7z/yHbP4yzlosKAzLbX8OxurofwDOGvk6VM8iyqskOUVm8988f/X3YM30di8/7pAYxje+gv5N+JYxmMuI7HVK2xP3JKX3JDIX9l95k6PHmIrvS6GyPXr7WB1OcDqjh4sK9r1+q3Adq+Kq8kI8nUWUY7B89rsMyF5hzZH8ai+CQ9x3Khhub9fPS/xrUM/BRNzy9UGSF+QrrCRdBtTptfadkIiXfxexPAdD7eHFheCvUu8ckQ0zn4PB0d/fbo/JZxHB8lc5/CDrS/GpFiybqZLTtwZBqlDsfvleC9ZO5UeECshqWcGG8t2xAXe076tgarZMZsKVzFYmnYNZzmVEjT1pcFjG0f/iZcXrZxGnN1rs779w8Ztu5gjr/+wf/zHo+j/2R1Gnfv2ah64M1IYJR//3K/cGfh42BtNXLplbL8/9p4HgGjytYP3t9rSSICPl3Gt7t9et2WX4zhbs+lWpmtxKclVdTmlQ9XCSYaDw33/d7uPSr/+6hHx5+SxiN/G3cvzpHAcALT/wWP6CiT9ys9d9WzvHv3Mymp96tK/evRK/+U2OrG+LzfMWzN4rW1ooNdaP9kwqB423YM3gl9PZYUHfoINE/Xs6BnMTdJqLlL3ois1PuDTNVdHO031B9k6tfX8dr7ZXZZBzdnxRCT20zjPq5S3YH4LPjcFkJUlyssBJTpDGPR2DNZ2/V2ZvcpZ3zoBh4icnMHSd3tiC4ZT9jLcb+c4Z/4CHfuZ2GJ+/H9MsfIXNp3rhYh8epWPs0cdZRuvJ86MXfK5i3Xw6UHH5W/0nP4HItmAi+03vtGW5LfsDp8LVkbly+v6b5JhFt9sbFo57ZusrvnwM9ofgX5pFzCpKiy4jPhiDYbjK98rGAR1vPsyweVhcxdLtLi0YHzbyZc/yVtqtR08cl/jXo7MWzA2dgPr1hn45H5d0o3lDtWnmN5QLWIDkazj21jZqNgNm1R7mt7cHev7aZnt/e/Cn/n897LNxX8WDN0TiDReB/7jU9T+7BctVCDlWS9eRpF9tkNzTMRh6iNZ8oL/XLdMylT4fhmWzfQQQw1dUo+2tNBRwfpEdA+07GjCcft6CcQ4KJpYB1fM2wvLjhlZyQsFAmUBVZY0tzy3tZbdpvqOpbGyWav/+xRFdeeSJalu2Fetx5P59xFBDyIKSpKAUolpRLR3EAuTH232Z/mtflXr5GEyPSVQgimNpfedNDtQbf8WlaQeWfNQltiwYDIFi3UJfz/pvfCuNEtFB9TFnGINx7MQRVDlitZk4smO3EK6B/0fCBtH6hvQICSsTxnFvd1RVq2z8QYQ9yZRAC8bpYM4Il60c7MeFU0vZHbZn3IXcLOxbcPpWlEwxbHZi207ruq1qasUublyth8jKtXYTu+XHtmCfeRcxXR+SnAz4aSDvvMnB116sFVq/no6ag9qBS9fzb4dvd7RWVujXH/8Q3d3qGvqOWwtWxlxlCAdwXHV/oC1iq2Tl4620hWXaabqjZi7sYJaX3RAwrGPI9877bHwOxhkQ1mPbrEqHY+daE3EhsDfnKp9x28FGrvbW3QY6fSua637duHdpa1mGtpzxrRy487CWXdiwthPHv6UZ4xvtuKX94DGYrmCqBauvI2cgFAHqFrFtFO+1YOW9MptwWPrJak75DRBqi7+VZhWrZXtT/HDWw1qwME2PyvF///dr+/dh2KOJuR1mf1XtF2rssr4QyiawndiMDQ+MAdn1gV97ccTOK7z8nbvfBHnZs2BHHY0Xbkrj5O+pvfxNjj8E6xhMAvzhVCjtEZK6kLhLHWCXaN3HTS5WOZ6XTS/0zfw2wkj3sKaJf2I1gmeTM893q03to7z+SZscQ8EVK1jT8ROA1j4VDBzRoasJExyDLRP/kNVbMBt+TSPDKi+74fTUc9r//nTa36ejt3RxCc59QRcWy757tgTnuwv7vQfl4Dwswbkuwcml7BKKZQlOXzi/yxZ/9ofN3FDBfm4Lhjy4YM9ABxxOGbdvF99GXciDmhsqJs4QnPl+502OMkYqj7SsA8IWjN0T8Kxgj74t70tBg7/7GTp7CQ19Q9R8VjAVDwaLDg0HYtwttMeUbRWM7WaZxAeHgNn/4fnPtmAywe6IqOJUIC4jFKfIugiiJ85HYH5IoIv4yRaMt2zuW35KA5c0BrTFbv0kh4GdUxtSO9hxLif5jBTLfsr8uUm6N2/mLs4UyhhM5MKxQjiUZRma8pv1LDmS77zJ0XR8r4z9NQ6aRusi9jacZsFHie/s4wxIKvqNVivQZqE1uz0wZno6i8gep43o+NNzG4M9oInxmFcwvoj9VkZsaA3tfJmmf6cFU+8iuoyoyn7l9cX25OXM+v1n4P/aHs98ugXj19dwN+NVtnmUeA0b/wSxnd6+s8HLaSNqxzCzmlvx54WGja3r0vRULY8yB94NeGGJlvymlsDTWcTst+nznIxV0vcHz8GYWRgDjQO6av93G9mcNUgap4TRQ+SDqx6ZfuNb82VY9Ytf9EIDhDFVhwr25JnVP72Nu+68JmgBzQ1DE8yVODLU4i5mbfhWgnuGb2nBkgZrAlFPwj8RwQv76bEpbnkYVfO/BrHwL6O9GsF6P+K+WVwzPwNQ/t6i6fn/t8vW/nQzOv3LaP+asTwwdF+2HzXxPzSAme+3YtSAU1PRa+d5WaaHV98Mnj4H07e8Gi59RZ4ZfPdtGr5XhqLeTSO6cov9DIHfbud7aPyjYSTS3kqDKfLllTN+Yx31jx+iVBFhPlO35DuVzR+u2nqVoLB9o70Ehyjwqm4X+wIk4lz7dIKvpNJL1wcZiMsIyUmD7ghI+3UZ8dkWrJl8oF3QltcMgabtcarMZHUjZWcv2KDaHeoFDDDAnieb/V8HDU1r1np6h5vUwlrF//rE2XGvzB/ib2rB/ku/aM5nv8otlxEy+5XfF9vLcp+cRWw63s62TMLdby3zzcI/d7JTjd1YwfAVuWEqlW5FM/GPDNEQzqhEi7nPGNa/NQTsr3W7Mv/VsXOaxNN3EeUtTyu6I0JwspFIcyS/+ovmPwrpMZg7Iiq4qhZRG3RHgORcRii9Tz4H60b22zY7VoUcQ9O01nJhwGQNE9oudOz70//J+H/loi42rD2qTSp/JloAlQZ10myE/7H+EJ9qwdJXRHKK/NSl+7kt2DXFVV26bK6mDSp7qohJv8qzy4B3+/8XoDlqsa1xGFhLArwGeD2zniJas26Zx/AIpuN/VqO9Y+s23x7iD5m8ITSgRsNGeUIaW7aP8PSbHOkWTOZ+kpP2tEGQP6UFu4zBXEZkcxBFxF07tF/p+Yo0V2FPkZ8ag2HM1LKSefEvtSSgjL2aMvhCwYFEpcAgmX9KuAaOfuHUT3cWqaGfx3EsM4o72vIn14ZuZIhesZpPVLCnb3K8ugXTFTbvG7v/0hjseyrEi7maCH7mORinmVBAt0FVbGkITvaRKPUM5yHRSLEbGCpN+Qddvq9dMEz32PODke2dOYz4OMexVqxh+nQL5kcB6Rbs9Vfkmecf0YKJrlBdbrmMkPYU6TJCcdLgoUgXZBOiuE+0YE2pOO1awWyMdUBXuozegmFItvwzjOV1nbXS8X9w+Xr25K0cMMS//WyW/bEYqp69irCOyXz4lsL3zSI+mQl3GSG4/9wsYl0LJg26I6KCe7W9TzwHQ2N0n9ndu5dhE8r7sYeICuZjsPLH7hg/sfZYiR78ERlJnkSlWT2jYdwqKurU1pkcZv+j+HWSAy1YsZGAzSLqjvyVq7pydVeE5E8Zg11aMJcRr8/9K5n1m4+gy4is30+0YC3/IhpDpjsqGC31l+kJVDCeGOIsoo/Y1okPn8JHE1MqD7HPRQ7T/ov0dl5f42gmbwVPcyrv4V9qwQQpL2fW4k9qwa6zZSJr6lowlxEy+1UYWU6UDx2G8uwyQNx4PsA2ybGsnzRCphXLnFOHQEvDCsEpR2ueyFnDhcivx2iV+LoGXNBjBbPXrPv9ZQ30FbeI+bNq95rCp8ZgqqXTnl1GqCuiFZVBcj+kBbt+k8NlhC6WkrxCqWmDVyhOG3RHREUYn/89WDuVSoDBlDc262SHD9JYm9CE8RUOuEsfESqcf0Tz1NqACiehai9uoNWC0ypefLMjzqCU/uTa80zhU7OINRmtFbP5b57/NwZzGaArXQWn7GXDyPpVnj/3HIxovRb442S6yr85eMUCUNMe8/r1BtQowB57Pe4dzk04nEd+KnvoJ540vek+cQJx5FdHxqltusfDPj8ysp61Ew7MRhalgolckFc4m9OKq3uTg0n/ES1YxSyiyphsDla1YJKzQntETUI+9RzMMHSlo9b222zE+rouHIXi/Hrp1gGsYTayaharSnZcTjbL6my6peObV6yMpo7mzpzlKRmaS6tpadgYTGXC/97k+Hcgx2AuA3SFUJzLgHSr9qncPyFrT3NX8vO/B/sCLsEG4njupHnQu1h5D/XvImrP7ghI23tq8L8+BsvmtNa7kvVX5ISsPcV9vgX7O/CpWcT0FRHckworcaZxzA7mDxqDWZrWFbszOJelcFGVvgXHHjrpeIbus+ZJhbDjM6niRx3p+Ywr+U0t2G/A9Faeg2VwuUJPIZT4kvMBsMaaiP15xblI2ELyE88i/1yU6eiSprCeU3zOhLJeNal3pLCuXFgMflDWfYmrqR2IshxJY7Zz60KGjrhetbgcdcj85BbMvsnhyQxLueXFpayZpeTgaQme7ZDSthMERW20qf+pWUR3RFRxyUCU3++I4Oefg/0deP5dxGzuJzmrdBcoTvq2WZ93/l3lr0F6FlGRLiOynJrEVXoy911GpOOn9AT3+edgfweejsGqrrA26I4DkorG/adaMDEETmf/swy8QCm6jJBX5MUR/PxzsL8DT2cR9YNmldMVnAxYkeb5p4zBLnfqZG5lM0ty2RYse5myl1iZU+R/bhaxrgUTkFcua9Fi898ag0nSHTvKSPaEpF/NuYyQXFrRZYTgfuos4tNfNMuMyeaWsqduodreM4M/YgwmBvNPE3yCyqz8FUkalJzyK3o4ab+C+9GziPKKiAqhMqbqKklN6ZmX838tmMuINJdUTIebtJflfu4Y7OksossDBFlz5T4XyI+4BkjE+U4tM+ZZJpyR5FSFlfbyBt0RIDmXEapf+/L/aP5D8HwMlh4Vu4xQnOwiypAVxxbsf2/Tu4xIF3Tp2WWAUpN6oouYj6DLgB8xgyXw9BfN+cyq4GQgMjLkfsi7iF8eg+lL4jJC2lOky4iX67mMUNx/bxbx1S2YLDJZ3/9rwYhsZmmD7gioqkxS0WVE0qC48fwIfG4MVpOreb/PPP+UFuwyBkvmluRkVrsMqJo00QbdEZCP9BU/+E2O/CxiNqMlmR+DuYwwg/9rwVxGKE4bdEdEjV56DOYyQnA/dRaxVDCZgy4PSOaWVEv61Qa9i/j3XwNRkKpyS2WW5K6kDEMadBkhA3EZkfX7o8dgMrNEiyOvSJpTpNKUsSH3c1uwa4q/ZVJC5r7LCBlGkstG8Oe+yfHsXUTFySuS5GQX8VOB/NgxmMuIbK5qzy4DqiqsNJjsImbD+N8sIlBzhbXnrO//zSISycySWZ3mXB6Q9JuPoMuAn/0mh8xBlwdU5GD+ijzz/GPHYMncUjOG3zKLKDkZiDsCsuH+0Gn65lNjMH3l3BGhOG0PF/4Co08rdj+qBTukrsgdni8Hblc9b0/II5j9Z97chYvr+Rjr+Rgrywf9R6whHNci40ZxAJTax9snPuf512CY3/ifYofkh+1yTQBxWJTi6rszogpsl+p5We3crmZHrJ64+c9t95cvC+/Uh8St+XLMgFIhAreq+25duG4H61JEXPdQdrIcptbzMVaSwRjXJ3om44JjiLBia8fbp/69/+9As9zfRmvBLssxZ8pqy3pQVqfOa9nFtdgLKjyycxcIDtrWgt3+frxdu0LPEnxGBcfcv0D5lZ5dRtTYU2Qz3d4efas/pvW3ol0eb/ZX7SqzsjmYLQr5IqM8c5JjeNzefr393Stwv8yWPUvwGekcdBmhe+hXKE6R8iolDUq/6CPe7o8Ry89ZH/e3N/uIt8wYlQsuI9KcImX2u4wwz023/AT4550DVCZUZb806I6ALKcj6I6PkLTHb8Xfb79+GG738q1ukWJ9hRXnMqLmykkyfTmzeLW9GoPpnFaczC2XAekKm7Qnm9hspHUE179g+DmY58nvpioTvqOPIjX1ZZK+v44Xm6uzl02wCiTNJRWVmtRL2styxR7vF2EBeVmy3DDEo7LU2GswPIzHXIh4zOVIOWSCP5UzJ1To1XlOcyoQlxE19pTiq+1lOXk50/akQXcE1NlTmn8SKuIXqtoOkWCZB2lOkVnfrx/zu4zI+lWkLDMuD0gG8j0VIsu5jMh2EfMJdkeE5JKe5azOi7ls4nSCqzy7I0B2EdNclWeXAXXl12VENoJZvzWcDFd6dnlAUi8fsDsCtL0rmw0jHUGllzWYT4g7IhT36jZDBqw0ZUq+owXLRiYdaZcHpO0lDWYDSSfE5QEV9jQnyBf3KdINRNJeZRG8kvoKJzkZwaRe2nPWr+aSBrNc+jFThV42MjIMQeowsgZFeZN6LiN0uDWeXUZ8i72kZ6X2+2YRFffqFix/+3AZUZPVWYPZ8qaHzy4jshFMqn0iwSqQK6fTm/MruewYLB+GIl1GpMO4klUJVpyOzHcE8uIOiY6My4g0lwwja7CqeGiD7gjI2pPct+Sgy4hsrtbY02FkDbqMyNpL+67L/iuZt1ejJxVdRki/inQZITlp0B0BVRF8eQ/HZUTWryBlBirPSXtPEpw0qNRqcl9xf9Qs4vd0gAUnr0iWEwazGfPb7ih5TpEuI5L2dCAuD0gaTMdPki4jRBHMhptX1FF0GfDbxmDaszsCJOfygHQYSYNpLqmY9Zu1l+ayDYSE0MuOwdIZIz27jJDclZT2sgaTYeQV05zLCMVVenYZUGNPckl7WYPqcqow0oHIWUSXEZJT9pIpHlrDcKg/6UBcHpDU05F2R4D06/KAb+lEZX3nWzDl+crlb0dJvVd3gHUEhZ4ymPRL3xdIvy4j8mEkDWauMH9hNT4e9/v9MU7tbjkfGZcBSk3qfUsRfDGnI+gyos6zy4hX3z7SueAyImuvJoLpO4r27I6AbASrwnC5ounnB3+xyt/V3e6PuVsVpL2EQUJy0qA7ArL28oG4jMga1JHO4tW/dP0Oe59I3hV/0k97ZUK+/4q00+Pt7T7O0zJN83h/e3uwFXuGmvj9IQn+HIQ9Swf4uBbQcdoERQjqXc4RT8dTipM4KcVD3ygkTnoGyG09H2/reuawBWegKI8rdid6JQ6bIUFifyRWXBk6T2vZHbcrU3ZlbZpuRLM196VnOLTLfH+7oRHbsPox5U0EXBkHTqwe1y0498PIhC2uBScSq7PbtorI7XxcC+hYt5WNHLb1EgewDbOWbAfHFMatJ4uCdYAj5duZ+ojj3pY99H0rIccNewhb4+6oWIiLvc2J/Wl33szvDuoUeydQtYiwcX+hjIwQub3qxc2pM4l9JGw7XxHujgbLsUjINVxssHdmy84xjLfjZ3Ga/sGvINFly8Efwy30vmwa58Wwena9y+GzIniAKZ5JANTRC9WofOKfZNZRp2yR41b8Fu3Vj585Q5Aq0jV6UjHt12XEt9irMVgz6FRkNsHZQNQdJVLtfLtNrE07GuPWcn+GnKZ3GZHmlL0agzVXRHKKVJoyJa+OjbRXYfDV2f+sBbsgzclA3BGh9FxG1CROhvG+XrOgtbpctGF+uz35aJM2mMX7kdlRwckrXGMwPZGtY+OOgGwEtV9FugzIZ0JSUUfGHQH5gF1GSHuKdBlRE8F0GC4jPohgf7+Nx/bL0D1up7/fKnawj7WRgxN+lRJoWQ75MK1r2wYOMPa9Srj3EsoBTXFBoS2Wjk/eHDlKZoy6x2czNR+I1nQZ8PIWTCbF5QFKT3Dp20eSq6oQQlHakwG7jJBc+oqoQASnyttmsFnebvKzpP3t7dCENe3CetgtXbgizdQP3cinZ9iW4Z9hovs2ds0Ch2Fum35vIZsevVFkGScu7w8GgJDm3iYRDpEPzg0ywS4D0ldEe3ZHQI29tGelpiOY9Jw36I6ArD3JJcPIxqVqSJINJGtPcu8a5Hd/VY3+p33cUC92r01nA7UOVWojh2Xq/hm6ru/6Hg0WiPkBV9+hoeq7ZXwsXd82w7Q3ke00d9NjHB9zD0Wz1I23O78UBRYVs6h9IhOUYtrzFYqT9/is73yFuJIydfL+KwN2R0AyXMmlI50O2OUBym8Fl7WXjuCn7fX3+6QUUHlu/JDrfq7tWU3aZasEcKN+HTDM4T8OmqW0XJBbBevnru3neX6sda7pUb/maZ6nabyFtlTFKcnpK5zktEF3REgu6Tlv0GVAVflVnLx9qDAU5zIimzilpsOt8ewyQtqr4hS5SlSjrfQf0d1v+5eSGz4eWwbup94GWayCfFhWzjtQwXZimLyCTVsFayY/z54ige4j6pbVWTSH6GQ6jmYLdDoEKe/xLiPSnCKzvr9lFjEdmSzn8oB0GEmD6chIzy4DlJrU+44rskV6sv8oUWgfHIS5XrNglHUbl/F+s5EVmpqmX5qmW3ADxAJ7NDnM4Y9cGu8aNsvWRezHMuxCT7NQNqTrZhx14/6CFiBz2mWEUpN+057dEZC9x2tOBeIyIhtplbqs37qAXUak/UrPLiOk3yup7UnP7giQnMsIzV3Z9+8o85segqGC3d/2/h7GVNO4tG03jdOCHftyKHfttPQ2eCIeaOHWForYWrCtizhAp7jQgpmi3U1Qwx6Ph1e5AhFlSUq95B1KXyWXEVIxa/H97A9IcunIZDl1+6gJ49UJ1imuCaNGUVHv2pt/Patgw+PXHA0OfQdN7FGLS6cOVQh1DuMnjKkej3lemmF+TOjprWdLxdpasIHTHsXg3oIt0O/7acbOnB6bPdwN6u6hUievsPKb5dL2sp6rIigqRF2Ck4oyIS4j0noyEJcBr6+wosBXhSE8b4lr3qlgsQWDZo+x0oCBEpqeMtPRtPO4TnKUOXx0Ee93NkZmcq1gGKt5bRpRgzCaA6a5p2gnaHvjZc2Ye5UJTqc4mYFPcssdAbKLmI1NTY9fd0jccYDyXMFlI6g86wqhOJcRab/Ss8uIF/uVnt+9wst7YzBUsFWx6R63aejG26MdWMFAtfN989v2VtUwBmuH9cExxmAW9NpFbNoeXcqBozmM57h79FBGhesmjunoHtYEiHRkuXQLpvSk16Q9bfDVgWS7dL/LXj63XEYILt+CSc/uCKiy5zLi3Qg2C2qMu08os4iu2HTTNHcYiT3K82S+n4Ee3Tq44mQFxTCH/0Bcx2DoGZY63jToU6KadX03j1MP0NQ8zuVJGLgtKjoh7ghQXF0L5jJCes76rruhuwzQKUl6zhqss6dIlxFCLzsKkAaTaukuYtqgsrcp9nd75/AKvovRb2p8H4rPwZr+MU/o2aE6NegwbjUCXUSqDrN38Qgxi8gKZo5u1eMQjv+px4HcaP9ZWZC9SoJMt2CKU35lFzHNqUBcRihOkskWR2dCWtFlQNZvTRg63CuZtpfPGZcBUk3ae88zOn3evpzQPuzEpth0HGZx2nBe7HUOnGm3Cra1YHoWcQ0B3otjfQ5maNlDBIZihNit7EiPSFR6hF42o7XikyhekB+DKc9XTsdaki4DlFq2i6gj7TIg34K5PEAadEdEUi/L6Qgqzy4D3rdn7yK6+4DyLmLwy3mMhnMcQ4MWDDWKs/RrjfAXPDAG2yvl+ooUuoho3iwaWwsWKxgqYDGDCraFtzkCkpy+wlUG3REhuaTnmsh8y5hJci4jsvaUYtZvusJmY1g1i6j03vfc39+2HlwAGrA7+4F+CLAXuNgDMNSTfint2epzn0XkA7HyyBgVzJLSTDd7VAavoYu4hdmPPun/T+sVDajK1HSb4TJC2pOKvPtwF1e1MP/lcl3PS3DuC3f7UVl2sa3Y2f64CA6pU0tw+hKc++KhlXWlytFpvS7XVfPcHSnfHZfg3JfgXBe3p5a4UvHKqUWd2VaU+We/Byu/uDR1vks/Tx3qwkB7TT/T9U9nNWnolwkDM1PDiXG2dzKwdHwvmBLDK/CoW+28DC3/ThuV0P5UG35hFzb4QIwvdJiHfYkrQz4yXLGdFyKqlBXbkVm545LiLGOMPqy+C8BxybGIQmB/XQOcuJDrLw82uOLqiIcH534mYCN2RadWp2/GugxbXF3yop9X3wWs5Gnl7kIJhiiubb+e22lj9kMnLQMPcF1u23oU+8EFe4LtYNsXDuG34+0epiaIBrXuNpfflXCHrX88+rbny4IkhxntEZ+HUaed7o8Hzpg9+jadsvm+AP5Qp/qRj8qA+2Psunnkxz/QFj7ud75Mv3osKIfvrycUJips6/lo4+K+OAKYgeuJdWMSPVEHCJK6F1RxKhCXByQNqva5xt6rE2y5fYb0mzbojogK7sMItqN948aPiG68eb9xY9c7pzk3o7bHqexvJumhPO8qoF83wsPgQ3p2GSG49BXJG3THAclAspMc6TCyqUtzScWs35dHUGVg1rOOoDsC0pzLCKV3ULSvSj38d15okPpp/eaNNCgzUEGqSYPuCFB+P0zIimSRznOKzPpOxzqbDTJ1yYCzXDZxMsE12S8NKs5lRJpL2ssaTNxR0Ml7e7vPE0ZFGE6Z2+cgsldEcTIyLiOqrogKoybSNYnLG3R5QNZv1mBVIC4jXq4n2JcnWHJJxbTfRPkdlvF+v70Rt9vtXuYKCRVuOsHSszsC0pzLCKVX1YIpUvV/0xZffft4efsse/cVBvP3N5cRksvaSxpUVyTr9+sJHjpOM6By3R9T+OqGDEOSLgOUmkK+COYC+W23vLTnLKcM/vE39Ky9LJdOsPbsjoB0gl+sx+9A2cehYnlXfuUtz+UBSi/LuYzIhlFlMGsv7bumQmR7UTrFNZzLAxQp7SUNSk4adEfEi8PIe3YZkL8DCGQTnOVkBGULlg3EZYBOcAUnu4iSywbi8oBsINn7W5rL2lN6L+ZUwPkKmzbojoCkVx2G6nLKgF1GKLVsBNNhZPVcRmQTnDfoMkIGkvWdv324jFBqUi/pWXH524fLCMHVtWAuI6S9ZBgygqpCpAN2GVCVYG3QHRHJMKTeiytEugXLG3RHRJpTBl1GpAP5lhasJoy0ossIwX1LhZUBu4yosZfmqq6w8lvDqVBe3YLJe3zWd93t40qqXJCe67JVQJEygjmDuheVtSe4pL20X81dyXQEk/bSXDbS39KCaUV3BNQlriYQlwcoUlT3fARdRqTvlzV6UtFlRNqgy4hsINkuYjbcV9/Q8032q/UEm78NuiMizZ3Jf/75f9Z7DvfMUVl8AAAAAElFTkSuQmCC;" vertex="1" parent="1">
          <mxGeometry x="59" y="220" width="364" height="236.76" as="geometry" />
        </mxCell>
        <mxCell id="NlARpHzSFc4Lti2y5NIV-20" value="MySQL" style="rounded=0;whiteSpace=wrap;html=1;" vertex="1" parent="1">
          <mxGeometry x="578" y="575" width="120" height="60" as="geometry" />
        </mxCell>
        <mxCell id="NlARpHzSFc4Lti2y5NIV-39" style="edgeStyle=orthogonalEdgeStyle;rounded=0;orthogonalLoop=1;jettySize=auto;html=1;exitX=0.25;exitY=1;exitDx=0;exitDy=0;entryX=0.25;entryY=0;entryDx=0;entryDy=0;" edge="1" parent="1" source="NlARpHzSFc4Lti2y5NIV-22" target="NlARpHzSFc4Lti2y5NIV-27">
          <mxGeometry relative="1" as="geometry" />
        </mxCell>
        <mxCell id="NlARpHzSFc4Lti2y5NIV-22" value="MongoDB&lt;br&gt;MySQL" style="rounded=0;whiteSpace=wrap;html=1;" vertex="1" parent="1">
          <mxGeometry x="338" y="575" width="150" height="60" as="geometry" />
        </mxCell>
        <mxCell id="NlARpHzSFc4Lti2y5NIV-23" value="" style="ellipse;whiteSpace=wrap;html=1;aspect=fixed;" vertex="1" parent="1">
          <mxGeometry x="338" y="545" width="20" height="20" as="geometry" />
        </mxCell>
        <mxCell id="NlARpHzSFc4Lti2y5NIV-24" value="DS、ODS、DWD、DWS、DW" style="text;html=1;align=left;verticalAlign=middle;resizable=0;points=[];autosize=1;strokeColor=none;fillColor=none;" vertex="1" parent="1">
          <mxGeometry x="368" y="540" width="190" height="30" as="geometry" />
        </mxCell>
        <mxCell id="NlARpHzSFc4Lti2y5NIV-41" style="edgeStyle=orthogonalEdgeStyle;rounded=0;orthogonalLoop=1;jettySize=auto;html=1;exitX=0.75;exitY=0;exitDx=0;exitDy=0;entryX=0.75;entryY=1;entryDx=0;entryDy=0;" edge="1" parent="1" source="NlARpHzSFc4Lti2y5NIV-27" target="NlARpHzSFc4Lti2y5NIV-22">
          <mxGeometry relative="1" as="geometry" />
        </mxCell>
        <mxCell id="NlARpHzSFc4Lti2y5NIV-42" style="edgeStyle=orthogonalEdgeStyle;rounded=0;orthogonalLoop=1;jettySize=auto;html=1;exitX=0.75;exitY=0;exitDx=0;exitDy=0;entryX=0.5;entryY=1;entryDx=0;entryDy=0;" edge="1" parent="1" source="NlARpHzSFc4Lti2y5NIV-27" target="NlARpHzSFc4Lti2y5NIV-20">
          <mxGeometry relative="1" as="geometry" />
        </mxCell>
        <mxCell id="NlARpHzSFc4Lti2y5NIV-27" value="kettle - job" style="rounded=0;whiteSpace=wrap;html=1;" vertex="1" parent="1">
          <mxGeometry x="338" y="705" width="150" height="60" as="geometry" />
        </mxCell>
        <mxCell id="NlARpHzSFc4Lti2y5NIV-28" value="" style="ellipse;whiteSpace=wrap;html=1;aspect=fixed;" vertex="1" parent="1">
          <mxGeometry x="338" y="785" width="20" height="20" as="geometry" />
        </mxCell>
        <mxCell id="NlARpHzSFc4Lti2y5NIV-29" value="ETL流程作业" style="text;html=1;align=left;verticalAlign=middle;resizable=0;points=[];autosize=1;strokeColor=none;fillColor=none;" vertex="1" parent="1">
          <mxGeometry x="368" y="780" width="90" height="30" as="geometry" />
        </mxCell>
        <mxCell id="NlARpHzSFc4Lti2y5NIV-31" value="" style="ellipse;whiteSpace=wrap;html=1;aspect=fixed;" vertex="1" parent="1">
          <mxGeometry x="578" y="545" width="20" height="20" as="geometry" />
        </mxCell>
        <mxCell id="NlARpHzSFc4Lti2y5NIV-32" value="MASTERDATA" style="text;html=1;align=left;verticalAlign=middle;resizable=0;points=[];autosize=1;strokeColor=none;fillColor=none;" vertex="1" parent="1">
          <mxGeometry x="608" y="540" width="100" height="30" as="geometry" />
        </mxCell>
        <mxCell id="NlARpHzSFc4Lti2y5NIV-37" style="edgeStyle=orthogonalEdgeStyle;rounded=0;orthogonalLoop=1;jettySize=auto;html=1;exitX=1;exitY=0.5;exitDx=0;exitDy=0;entryX=0;entryY=0.5;entryDx=0;entryDy=0;" edge="1" parent="1" source="NlARpHzSFc4Lti2y5NIV-34" target="NlARpHzSFc4Lti2y5NIV-27">
          <mxGeometry relative="1" as="geometry" />
        </mxCell>
        <mxCell id="NlARpHzSFc4Lti2y5NIV-34" value="taskctl - server" style="rounded=0;whiteSpace=wrap;html=1;" vertex="1" parent="1">
          <mxGeometry x="79" y="705" width="150" height="60" as="geometry" />
        </mxCell>
        <mxCell id="NlARpHzSFc4Lti2y5NIV-35" value="" style="ellipse;whiteSpace=wrap;html=1;aspect=fixed;" vertex="1" parent="1">
          <mxGeometry x="79" y="785" width="20" height="20" as="geometry" />
        </mxCell>
        <mxCell id="NlARpHzSFc4Lti2y5NIV-36" value="任务定时调度" style="text;html=1;align=left;verticalAlign=middle;resizable=0;points=[];autosize=1;strokeColor=none;fillColor=none;" vertex="1" parent="1">
          <mxGeometry x="109" y="780" width="100" height="30" as="geometry" />
        </mxCell>
        <mxCell id="NlARpHzSFc4Lti2y5NIV-56" style="edgeStyle=orthogonalEdgeStyle;rounded=0;orthogonalLoop=1;jettySize=auto;html=1;exitX=1;exitY=0.5;exitDx=0;exitDy=0;entryX=0;entryY=0.5;entryDx=0;entryDy=0;" edge="1" parent="1" source="NlARpHzSFc4Lti2y5NIV-43" target="NlARpHzSFc4Lti2y5NIV-51">
          <mxGeometry relative="1" as="geometry" />
        </mxCell>
        <mxCell id="NlARpHzSFc4Lti2y5NIV-67" value="输出结果" style="edgeLabel;html=1;align=center;verticalAlign=middle;resizable=0;points=[];fontSize=16;" vertex="1" connectable="0" parent="NlARpHzSFc4Lti2y5NIV-56">
          <mxGeometry x="-0.026" y="-3" relative="1" as="geometry">
            <mxPoint x="-1" y="-3" as="offset" />
          </mxGeometry>
        </mxCell>
        <mxCell id="NlARpHzSFc4Lti2y5NIV-43" value="kettle - job" style="rounded=0;whiteSpace=wrap;html=1;" vertex="1" parent="1">
          <mxGeometry x="327" y="1230" width="150" height="60" as="geometry" />
        </mxCell>
        <mxCell id="NlARpHzSFc4Lti2y5NIV-44" value="" style="ellipse;whiteSpace=wrap;html=1;aspect=fixed;" vertex="1" parent="1">
          <mxGeometry x="327" y="1310" width="20" height="20" as="geometry" />
        </mxCell>
        <mxCell id="NlARpHzSFc4Lti2y5NIV-45" value="ETL流程作业" style="text;html=1;align=left;verticalAlign=middle;resizable=0;points=[];autosize=1;strokeColor=none;fillColor=none;" vertex="1" parent="1">
          <mxGeometry x="357" y="1305" width="90" height="30" as="geometry" />
        </mxCell>
        <mxCell id="NlARpHzSFc4Lti2y5NIV-46" style="edgeStyle=orthogonalEdgeStyle;rounded=0;orthogonalLoop=1;jettySize=auto;html=1;exitX=1;exitY=0.5;exitDx=0;exitDy=0;entryX=0;entryY=0.5;entryDx=0;entryDy=0;" edge="1" parent="1" source="NlARpHzSFc4Lti2y5NIV-47" target="NlARpHzSFc4Lti2y5NIV-43">
          <mxGeometry relative="1" as="geometry" />
        </mxCell>
        <mxCell id="NlARpHzSFc4Lti2y5NIV-65" value="定时触发" style="edgeLabel;html=1;align=center;verticalAlign=middle;resizable=0;points=[];fontSize=16;" vertex="1" connectable="0" parent="NlARpHzSFc4Lti2y5NIV-46">
          <mxGeometry x="-0.0924" y="2" relative="1" as="geometry">
            <mxPoint y="2" as="offset" />
          </mxGeometry>
        </mxCell>
        <mxCell id="NlARpHzSFc4Lti2y5NIV-47" value="taskctl - server" style="rounded=0;whiteSpace=wrap;html=1;" vertex="1" parent="1">
          <mxGeometry x="68" y="1230" width="150" height="60" as="geometry" />
        </mxCell>
        <mxCell id="NlARpHzSFc4Lti2y5NIV-48" value="" style="ellipse;whiteSpace=wrap;html=1;aspect=fixed;" vertex="1" parent="1">
          <mxGeometry x="68" y="1310" width="20" height="20" as="geometry" />
        </mxCell>
        <mxCell id="NlARpHzSFc4Lti2y5NIV-49" value="任务定时调度" style="text;html=1;align=left;verticalAlign=middle;resizable=0;points=[];autosize=1;strokeColor=none;fillColor=none;" vertex="1" parent="1">
          <mxGeometry x="98" y="1305" width="100" height="30" as="geometry" />
        </mxCell>
        <mxCell id="NlARpHzSFc4Lti2y5NIV-71" style="edgeStyle=orthogonalEdgeStyle;rounded=0;orthogonalLoop=1;jettySize=auto;html=1;exitX=0.5;exitY=0;exitDx=0;exitDy=0;entryX=0.5;entryY=1;entryDx=0;entryDy=0;" edge="1" parent="1" source="NlARpHzSFc4Lti2y5NIV-51" target="NlARpHzSFc4Lti2y5NIV-70">
          <mxGeometry relative="1" as="geometry" />
        </mxCell>
        <mxCell id="NlARpHzSFc4Lti2y5NIV-72" value="接口服务" style="edgeLabel;html=1;align=center;verticalAlign=middle;resizable=0;points=[];fontSize=16;" vertex="1" connectable="0" parent="NlARpHzSFc4Lti2y5NIV-71">
          <mxGeometry x="-0.023" y="1" relative="1" as="geometry">
            <mxPoint as="offset" />
          </mxGeometry>
        </mxCell>
        <mxCell id="NlARpHzSFc4Lti2y5NIV-51" value="MongoDB" style="rounded=0;whiteSpace=wrap;html=1;" vertex="1" parent="1">
          <mxGeometry x="608" y="1230" width="150" height="60" as="geometry" />
        </mxCell>
        <mxCell id="NlARpHzSFc4Lti2y5NIV-52" value="" style="ellipse;whiteSpace=wrap;html=1;aspect=fixed;" vertex="1" parent="1">
          <mxGeometry x="608" y="1310" width="20" height="20" as="geometry" />
        </mxCell>
        <mxCell id="NlARpHzSFc4Lti2y5NIV-53" value="DWS、DW" style="text;html=1;align=left;verticalAlign=middle;resizable=0;points=[];autosize=1;strokeColor=none;fillColor=none;" vertex="1" parent="1">
          <mxGeometry x="638" y="1305" width="80" height="30" as="geometry" />
        </mxCell>
        <mxCell id="NlARpHzSFc4Lti2y5NIV-63" style="edgeStyle=orthogonalEdgeStyle;rounded=0;orthogonalLoop=1;jettySize=auto;html=1;exitX=0.5;exitY=1;exitDx=0;exitDy=0;entryX=0.5;entryY=0;entryDx=0;entryDy=0;" edge="1" parent="1" source="NlARpHzSFc4Lti2y5NIV-58" target="NlARpHzSFc4Lti2y5NIV-43">
          <mxGeometry relative="1" as="geometry" />
        </mxCell>
        <mxCell id="NlARpHzSFc4Lti2y5NIV-69" value="加载数据" style="edgeLabel;html=1;align=center;verticalAlign=middle;resizable=0;points=[];fontSize=16;" vertex="1" connectable="0" parent="NlARpHzSFc4Lti2y5NIV-63">
          <mxGeometry x="-0.2659" y="-3" relative="1" as="geometry">
            <mxPoint x="3" y="13" as="offset" />
          </mxGeometry>
        </mxCell>
        <mxCell id="NlARpHzSFc4Lti2y5NIV-58" value="MongoDB&lt;br&gt;MySQL" style="rounded=0;whiteSpace=wrap;html=1;" vertex="1" parent="1">
          <mxGeometry x="327" y="1095" width="150" height="60" as="geometry" />
        </mxCell>
        <mxCell id="NlARpHzSFc4Lti2y5NIV-59" value="" style="ellipse;whiteSpace=wrap;html=1;aspect=fixed;" vertex="1" parent="1">
          <mxGeometry x="327" y="1065" width="20" height="20" as="geometry" />
        </mxCell>
        <mxCell id="NlARpHzSFc4Lti2y5NIV-60" value="DS、ODS、DWD、MASTERDATA" style="text;html=1;align=left;verticalAlign=middle;resizable=0;points=[];autosize=1;strokeColor=none;fillColor=none;" vertex="1" parent="1">
          <mxGeometry x="357" y="1060" width="210" height="30" as="geometry" />
        </mxCell>
        <mxCell id="NlARpHzSFc4Lti2y5NIV-70" value="数据集成可视化平台" style="rounded=0;whiteSpace=wrap;html=1;" vertex="1" parent="1">
          <mxGeometry x="608" y="1095" width="150" height="60" as="geometry" />
        </mxCell>
        <mxCell id="NlARpHzSFc4Lti2y5NIV-73" value="" style="ellipse;whiteSpace=wrap;html=1;aspect=fixed;" vertex="1" parent="1">
          <mxGeometry x="608" y="1065" width="20" height="20" as="geometry" />
        </mxCell>
        <mxCell id="NlARpHzSFc4Lti2y5NIV-74" value="·可视化展示" style="text;html=1;align=left;verticalAlign=middle;resizable=0;points=[];autosize=1;strokeColor=none;fillColor=none;" vertex="1" parent="1">
          <mxGeometry x="638" y="1060" width="90" height="30" as="geometry" />
        </mxCell>
      </root>
    </mxGraphModel>
  </diagram>
</mxfile>
